<svg xmlns="http://www.w3.org/2000/svg" xmlns:xlink="http://www.w3.org/1999/xlink" version="1.1" x="0px" y="0px" viewBox="0 0 267 379.83125" style="enable-background:new 0 0 267 303.865;" xml:space="preserve"><g><path fill="#ffffff" d="M116.993,144.205c1.273-0.557,2.621-0.839,4.002-0.839c3.977,0,7.574,2.351,9.167,5.993l7.081,16.184   c7.71-6.814,9.969-18.283,4.804-27.68c-5.986-10.886-19.664-14.858-30.551-8.872c-10.887,5.984-14.859,19.662-8.875,30.551   c3.28,5.965,8.871,9.848,15.046,11.159l-5.829-13.324C109.629,152.323,111.941,146.415,116.993,144.205z"/><path fill="#ffffff" d="M178.867,250.047c0.027,0,0.054-0.004,0.081-0.004c10.552,1.16,20.964-10.321,19.953-25.997   c-1.298-20.174-6.828-39.859-16.229-57.758c-7.504-14.289-22.995-18.523-31.254-11.244c-4.029,3.522-6.291,8.336-7.002,13.467   l13.086-7.438c1.505-0.857,3.212-1.309,4.936-1.309c3.591,0,6.926,1.94,8.7,5.061c2.722,4.792,1.041,10.905-3.749,13.634   l-18.188,10.34c5.386,11.39,8.661,23.673,9.661,36.248H130.77c-5.474,0-10.286,3.529-11.927,8.752l-16.5,52.501   c-2.068,6.585,1.592,13.604,8.179,15.673c1.247,0.392,2.511,0.578,3.753,0.578c5.314,0,10.242-3.416,11.921-8.755h-0.002   l13.748-43.749H178.867z"/><path fill="#ffffff" d="M169.398,165.814c-2.183-3.842-7.066-5.186-10.907-3.002l-19.723,11.211l-10.439-23.862   c-1.772-4.048-6.489-5.893-10.535-4.121c-4.05,1.77-5.894,6.487-4.122,10.537l13.998,31.998c0.904,2.066,2.668,3.674,4.809,4.386   c0.816,0.271,1.666,0.404,2.514,0.404c1.376,0,2.746-0.353,3.961-1.042l27.445-15.602   C170.236,174.536,171.582,169.653,169.398,165.814z"/><path fill="#ffffff" d="M208.83,168.139c-5.42,28.41-7.541,57.283-6.395,86.06h-51.135v11h2.334v38.666h11v-14h40.92   c0.631,4.676,1.328,9.344,2.133,14h11.174c-7.889-44.219-7.646-89.52,0.773-133.666   C216.033,169.512,212.432,168.826,208.83,168.139z M164.635,283.865v-18.666h38.412c0.428,6.233,1.01,12.455,1.75,18.666H164.635z"/><path fill="#ffffff" d="M166,110.785c18.227,0,33-11.044,33-24.667c0-13.623-14.773-24.667-33-24.667c-18.225,0-33,11.044-33,24.667   c0,7.977,5.071,15.066,12.931,19.575l-8.469,13.512l-4.461-2.337l2.25,8.5l8.25-3l-3.373-1.767l8.477-13.523   C153.656,109.426,159.614,110.785,166,110.785z M137.668,86.453c0-11.046,11.979-20.001,26.756-20.001   c14.779,0,26.758,8.955,26.758,20.001c0,11.045-11.978,20-26.758,20C149.646,106.453,137.668,97.498,137.668,86.453z"/><path fill="#ffffff" d="M234,80.784c-18.225,0-33,11.044-33,24.667c0,2.818,0.641,5.522,1.805,8.045l-49.577,20.307l-2.944-4.472l-2.152,8.525   l8.67,1.374l-1.893-2.874l49.346-20.212c5.329,8.268,16.646,13.974,29.746,13.974c18.226,0,33-11.044,33-24.667   S252.226,80.784,234,80.784z M232.424,125.786c-14.777,0-26.756-8.955-26.756-20c0-11.047,11.979-20.001,26.756-20.001   c14.779,0,26.758,8.954,26.758,20.001C259.182,116.831,247.203,125.786,232.424,125.786z"/><path fill="#ffffff" d="M118.152,66.255c24.402-2.021,42.957-18.445,41.447-36.685c-1.512-18.238-22.518-31.386-46.918-29.364   C88.279,2.227,69.725,18.651,71.235,36.89c1.34,16.173,18.009,28.331,38.777,29.473l7.782,48.003l-3.873,0.571l6.82,5.551   l4.906-7.279l-4.884,0.72l-7.698-47.476C114.742,66.456,116.438,66.397,118.152,66.255z M77.521,36.821   c-1.226-14.789,13.82-28.107,33.604-29.746c19.785-1.639,36.817,9.021,38.043,23.811c1.225,14.786-13.82,28.105-33.605,29.744   C95.777,62.27,78.746,51.608,77.521,36.821z"/><path fill="#ffffff" d="M102.751,129.368l2.25-9.333l-4.525,3.31l-14.675-20.149C91.494,98.763,95,92.748,95,86.118   c0-13.623-14.773-24.667-33-24.667c-18.225,0-33,11.044-33,24.667c0,13.623,14.775,24.667,33,24.667   c8.144,0,15.593-2.209,21.348-5.863l14.706,20.194l-3.994,2.922L102.751,129.368z M37.168,86.953   c0-11.046,11.979-20.001,26.756-20.001c14.779,0,26.758,8.955,26.758,20.001c0,11.045-11.978,20-26.758,20   C49.146,106.953,37.168,97.998,37.168,86.953z"/><path fill="#ffffff" d="M65.871,147.23l24.576-0.78l0.167,4.947l5.991-6.437l-6.449-7.111l0.189,5.602l-24.376,0.774   c-0.631-13.209-15.144-23.773-32.97-23.773c-18.225,0-33,11.044-33,24.667c0,13.623,14.775,24.667,33,24.667   C50.274,169.785,64.438,159.863,65.871,147.23z M34.924,165.953c-14.777,0-26.756-8.955-26.756-20   c0-11.046,11.979-20.001,26.756-20.001c14.779,0,26.758,8.955,26.758,20.001C61.682,156.998,49.703,165.953,34.924,165.953z"/><path fill="#ffffff" d="M89.624,182.43l8.492-10.114l3.798,3.176l-0.799-8.756l-9.6,0.061l4.3,3.596l-8.753,10.425   c-6.743-3.782-15.723-5.354-25.139-3.776c-17.975,3.013-30.721,16.347-28.469,29.782c2.252,13.436,18.648,21.886,36.623,18.874   c17.975-3.014,30.721-16.348,28.469-29.783C97.631,190.448,94.375,185.809,89.624,182.43z M71.342,221.599   c-14.574,2.442-27.869-4.41-29.694-15.303c-1.825-10.895,8.509-21.705,23.083-24.148c14.574-2.442,27.869,4.41,29.695,15.303   C96.252,208.344,85.916,219.155,71.342,221.599z"/></g><text x="0" y="318.865" fill="#000000" font-size="5px" font-weight="bold" font-family="'Helvetica Neue', Helvetica, Arial-Unicode, Arial, Sans-serif">Created by Gan Khoon Lay</text><text x="0" y="323.865" fill="#000000" font-size="5px" font-weight="bold" font-family="'Helvetica Neue', Helvetica, Arial-Unicode, Arial, Sans-serif">from the Noun Project</text></svg>