<svg xmlns="http://www.w3.org/2000/svg" xmlns:xlink="http://www.w3.org/1999/xlink" x="0px" y="0px" style="enable-background:new 0 0 200 200" version="1.1" viewBox="0 0 200 250" xml:space="preserve">
    <g>
        <path fill="#ffffff" d="M142.9,119.4c-2.9,0.5-5.9,1-8.8,1.4c-2.9,0.4-5.8,0.8-8.6,1.1c-2.9,0.3-5.7,0.6-8.6,0.8c-2.8,0.2-5.7,0.4-8.5,0.5   c-5.6,0.2-11.2,0.2-16.9,0c-2.8-0.1-5.7-0.3-8.5-0.5c-2.8-0.2-5.7-0.5-8.6-0.8c-2.9-0.3-5.8-0.7-8.6-1.1c-2.9-0.4-5.9-0.9-8.8-1.4   c-2-0.4-4,1-4.4,3c-0.4,2,1,4,3,4.4c1.5,0.3,3,0.5,4.5,0.8c-0.2,1.4-0.2,2.9-0.1,4.4c0.3,2.5,1,4.9,2.2,7.1c1.2,2.1,2.8,4,4.7,5.5   c1.9,1.5,4.1,2.6,6.4,3.3c1.8,0.5,3.6,0.8,5.4,0.8c0.7,0,1.4,0,2-0.1c2.5-0.3,4.9-1,7.2-2.2c2.1-1.2,4-2.7,5.6-4.6   c1.6-1.9,2.7-4,3.4-6.3c0.5-1.5,0.7-3,0.8-4.5c0.7,0,1.4,0,2.1,0c0.7,0,1.4,0,2.1,0c0.1,1.5,0.3,3.1,0.8,4.6   c0.7,2.3,1.9,4.4,3.4,6.3c1.5,1.9,3.4,3.4,5.6,4.6c2.2,1.2,4.6,1.9,7.2,2.2c0.7,0.1,1.4,0.1,2,0.1c1.8,0,3.7-0.3,5.4-0.8   c2.3-0.7,4.5-1.8,6.4-3.3c1.9-1.5,3.5-3.4,4.7-5.5c1.2-2.2,2-4.6,2.2-7.1c0.2-1.5,0.1-2.9-0.1-4.4c1.5-0.2,3-0.5,4.5-0.8   c2-0.4,3.4-2.3,3-4.4C146.9,120.4,145,119.1,142.9,119.4z M87.9,137c-0.9,1.1-2.1,2.1-3.4,2.8c-1.3,0.7-2.8,1.2-4.4,1.3   c-1.5,0.2-3.1,0-4.5-0.4c-1.4-0.4-2.7-1.1-3.9-2c-1.1-0.9-2.1-2-2.8-3.3c-0.7-1.3-1.2-2.7-1.3-4.2c-0.1-0.8-0.1-1.7,0-2.5   c2,0.3,4,0.5,6,0.7c2.9,0.3,5.9,0.6,8.8,0.8c2.6,0.2,5.3,0.3,7.9,0.4c-0.1,0.8-0.2,1.7-0.5,2.5C89.5,134.6,88.8,135.8,87.9,137z    M132.4,131.2c-0.2,1.5-0.6,2.9-1.3,4.2c-0.7,1.3-1.6,2.4-2.8,3.3c-1.2,0.9-2.5,1.6-3.9,2c-1.5,0.4-3,0.6-4.5,0.4   c-1.5-0.2-3-0.6-4.4-1.3c-1.3-0.7-2.4-1.6-3.4-2.8c-0.9-1.1-1.6-2.4-2.1-3.8c-0.3-0.8-0.4-1.7-0.5-2.5c2.6-0.1,5.3-0.3,7.9-0.4   c2.9-0.2,5.9-0.5,8.8-0.8c2-0.2,4-0.5,6-0.7C132.4,129.5,132.5,130.3,132.4,131.2z"/>
        <path fill="#ffffff" d="M172.3,102.2L144.5,94l0-11.9c0-1.1-0.5-2.1-1.3-2.8c-0.8-0.7-1.9-1-3-0.9c-23.3,3.6-47,4-70.4,1.3   c-2.1-0.2-3.9,1.2-4.2,3.3c-0.2,2.1,1.2,3.9,3.3,4.2c22.6,2.6,45.5,2.4,68.1-0.7l0,7.4c-24.3,5.8-49.7,5.7-74,0l0-20.4   c0-4.5,2.1-8.7,5.7-11.4c3.8-2.9,8.6-3.9,13.2-2.7l9.2,2.4c5.8,1.5,12,1.5,17.8,0l9.2-2.4c4.4-1.1,9.1-0.3,12.7,2.3   c3.5,2.5,5.8,6.4,6.1,10.6c0.2,2.1,2,3.6,4,3.4c2.1-0.2,3.6-2,3.4-4c-0.5-6.4-3.9-12.3-9.2-16.2c-5.5-3.9-12.4-5.2-19-3.5l-9.2,2.4   c-4.6,1.2-9.5,1.2-14.1,0l-9.2-2.4c-6.9-1.8-14.1-0.3-19.7,4c-5.4,4.2-8.6,10.6-8.6,17.4l0,20.5l-27.8,8.1c-1.6,0.5-2.7,2-2.7,3.6   c0,1.7,1.1,3.1,2.8,3.6c25.7,6.9,49,10.4,72.3,10.4c23.3,0,46.6-3.5,72.2-10.4c1.6-0.4,2.8-1.9,2.8-3.6   C175,104.1,173.9,102.6,172.3,102.2z M43.1,105.5l16.2-4.7c13.3,3.3,27,5,40.7,5c13.7,0,27.3-1.7,40.6-5l16.2,4.7   C117.3,114.5,82.7,114.5,43.1,105.5z"/>
    </g>
    <text x="0" y="215" fill="#000000" font-family="'Helvetica Neue', Helvetica, Arial-Unicode, Arial, Sans-serif" font-size="5px" font-weight="bold">
        Created by Symbolon
    </text>
    <text x="0" y="220" fill="#000000" font-family="'Helvetica Neue', Helvetica, Arial-Unicode, Arial, Sans-serif" font-size="5px" font-weight="bold">
        from the Noun Project
    </text>
</svg>
