<svg xmlns="http://www.w3.org/2000/svg" xmlns:xlink="http://www.w3.org/1999/xlink" version="1.1" x="0px" y="0px" viewBox="0 0 100 125" enable-background="new 0 0 100 100" xml:space="preserve"><path fill="#ffffff" d="M12.339,25.73c1.882,1.688,4.312,2.618,6.842,2.618c5.649,0,10.246-4.597,10.246-10.247c0-5.649-4.596-10.246-10.246-10.246  c-5.65,0-10.247,4.596-10.247,10.246C8.934,21.008,10.175,23.788,12.339,25.73z M19.181,9.856c4.547,0,8.246,3.699,8.246,8.246  c0,4.547-3.699,8.247-8.246,8.247c-2.036,0-3.992-0.748-5.506-2.106c-1.742-1.563-2.741-3.802-2.741-6.14  C10.934,13.555,14.634,9.856,19.181,9.856z M67.157,33.38c0-2.936,2.38-5.316,5.315-5.316s5.315,2.38,5.315,5.316  s-2.38,5.315-5.315,5.315S67.157,36.316,67.157,33.38z M94.609,81.612h-6.074l1.62,2.19c1.149,1.555,0.822,3.746-0.731,4.896  c-0.626,0.463-1.356,0.687-2.079,0.687c-1.072,0-2.13-0.49-2.816-1.418l-12.04-16.273l-12.04,16.273  c-0.687,0.928-1.744,1.418-2.816,1.418c-0.723,0-1.453-0.224-2.079-0.687c-1.554-1.149-1.881-3.341-0.731-4.896L68.037,65.94  c-0.018-0.162-0.049-0.319-0.049-0.485V50.593l-5.661,2.946v4.143H32.759v-9.003h3v6.003h23.568v-0.494h-9.709  c-1.057,0-1.981-0.549-2.516-1.375H36.984v-3h9.982c0.5-0.961,1.494-1.625,2.652-1.625h9.994l8.591-4.471  c0.562-1.845,2.257-3.196,4.285-3.196c2.485,0,4.5,2.015,4.5,4.5v14.19h14.708v3H76.988v3.244c0,0.166-0.031,0.323-0.049,0.485  l2.478,3.349h9.073v3h-6.854l4.679,6.323h8.294V81.612z M62.327,37.718H32.759v-9.003h3v6.003h23.568v-6.003h3V37.718z   M58.102,32.848H36.984v-3h21.117V32.848z M58.102,27.557H36.984v-3h21.117V27.557z M58.102,21.826H36.984v-3h21.117V21.826z   M36.984,44.521h21.117v3H36.984V44.521z M58.102,41.79H36.984v-3h21.117V41.79z M29,59.334H18.19l0.886-7.381  c0.034-0.284-0.055-0.569-0.245-0.783s-0.462-0.336-0.748-0.336h-0.485l0.805-4.8l-1.973-0.331l-0.86,5.131h-1.699l-0.464-3.386  l-1.981,0.271l0.427,3.115h-1.187c-0.286,0-0.558,0.122-0.748,0.336s-0.279,0.499-0.245,0.783l0.886,7.381H5v3h22.5v2.896h-3.833h-7  H5v3h10.167V93c0,0.828,0.671,1.5,1.5,1.5h7c0.829,0,1.5-0.672,1.5-1.5V68.229H29c0.829,0,1.5-0.672,1.5-1.5v-5.896  C30.5,60.006,29.829,59.334,29,59.334z M16.957,52.834l-0.76,6.333h-3.642l-0.76-6.333H16.957z M22.167,91.5h-4V68.229h4V91.5z   M13.913,20.469l-0.491-1.938l4.759-1.207v-5.741h2v7.297L13.913,20.469z"/><text x="0" y="115" fill="#000000" font-size="5px" font-weight="bold" font-family="'Helvetica Neue', Helvetica, Arial-Unicode, Arial, Sans-serif">Created by davidyu</text><text x="0" y="120" fill="#000000" font-size="5px" font-weight="bold" font-family="'Helvetica Neue', Helvetica, Arial-Unicode, Arial, Sans-serif">from the Noun Project</text></svg>