<svg xmlns="http://www.w3.org/2000/svg" data-name="Layer 1" viewBox="0 0 100 125" x="0px" y="0px"><title>Artboard 20</title><path fill="#ffffff" d="M50.07,31.74a13.24,13.24,0,0,1-3,1.79,13.75,13.75,0,0,1-2.93.81c-.25,0-.45.71-.43,1.46h0c0,.67.24,1.2.53,1.21a13.29,13.29,0,0,0,3.8-.29A14.64,14.64,0,0,0,58.86,25.88,15.32,15.32,0,0,0,56.27,13a15.66,15.66,0,0,0-28,6.32,15.45,15.45,0,0,0,.18,6.53A14.67,14.67,0,0,0,39.32,36.75a13.34,13.34,0,0,0,3.81.3c.33,0,.57-.67.54-1.44s-.21-1.26-.44-1.3a13.72,13.72,0,0,1-2.92-.8,13.22,13.22,0,0,1-3-1.79,11.4,11.4,0,0,1-4.11-6.87,11.09,11.09,0,0,1,.12-4.46,10.88,10.88,0,0,1,2-4.16,10.59,10.59,0,0,1,16.71,0,10.89,10.89,0,0,1,2,4.16,11.14,11.14,0,0,1,.12,4.47A11.43,11.43,0,0,1,50.07,31.74Z"/><path fill="#ffffff" d="M11.3,44.33a42.2,42.2,0,0,0,3.16,3.87,36.49,36.49,0,0,1,2.72,3.34,33.38,33.38,0,0,1,6,15.15,34.57,34.57,0,0,1,.28,3.89l.06,4.05.12,7.76.07,3.7,0,1.8v.54a3.17,3.17,0,0,0,.23,1A3.22,3.22,0,0,0,25.29,91a3.22,3.22,0,0,0,1.44.47h.37l.86,0,1.7,0,3.3-.07L44.65,91c1,0,1.75-.7,1.68-1.47a1.62,1.62,0,0,0-1.68-1.28L33,87.94l-3.3-.07-1.7,0H27.5l0-1.74.07-3.7.12-7.76.06-4.05a38.36,38.36,0,0,0-.2-4.4,37.54,37.54,0,0,0-6.45-17.41,40.84,40.84,0,0,0-3-3.87,37.73,37.73,0,0,1-2.72-3.45,34.59,34.59,0,0,1-4.44-30.71c.26-.75.52-1.49.83-2.23l.11-.27.08-.16a1.71,1.71,0,0,1,.17-.3,2.92,2.92,0,0,1,.43-.54,3.14,3.14,0,0,1,2.52-.9,3.2,3.2,0,0,1,1.3.42,3,3,0,0,1,1,.94,3.37,3.37,0,0,1,.39,2.74l-.12.35-.27.67c-.17.45-.33.9-.48,1.36A28,28,0,0,0,39.66,49.34a29.81,29.81,0,0,0,11.19-.69,28.32,28.32,0,0,0,17-13,29.28,29.28,0,0,0,3.46-9.91,30.73,30.73,0,0,0-.35-10.14A32.1,32.1,0,0,0,69.41,11l-.1-.26-.06-.17a1.91,1.91,0,0,1-.09-.32,3.27,3.27,0,0,1-.09-.66A3.55,3.55,0,0,1,71,6.26,3.25,3.25,0,0,1,73.44,6a4.3,4.3,0,0,1,2.23,1.53,3.65,3.65,0,0,1,.36.56l.15.31.18.44c.24.59.46,1.18.67,1.78a35.25,35.25,0,0,1,1.65,7.13,36.17,36.17,0,0,1-5.16,23.5,1.53,1.53,0,0,0,.26,2.15,1.57,1.57,0,0,0,2-.66,37.09,37.09,0,0,0,5.34-10.88A38.49,38.49,0,0,0,81,9.33c-.21-.67-.44-1.34-.69-2l-.19-.5c-.07-.18-.18-.41-.27-.62A7.88,7.88,0,0,0,79.13,5,8.59,8.59,0,0,0,74.71,1.8a7.91,7.91,0,0,0-2.9-.35,7.73,7.73,0,0,0-2.89.79,8.05,8.05,0,0,0-4,4.38,8.15,8.15,0,0,0-.53,3,7.91,7.91,0,0,0,.18,1.55,6,6,0,0,0,.2.76l.12.36.1.27a28.29,28.29,0,0,1,1.24,4,26.18,26.18,0,0,1,.14,8.4,24.47,24.47,0,0,1-3,8.08A23.27,23.27,0,0,1,49.49,43.52a24.63,24.63,0,0,1-9.08.49,22.94,22.94,0,0,1-8.64-3.1A22.55,22.55,0,0,1,21.43,26.06,22.72,22.72,0,0,1,22,14.52c.12-.37.25-.74.38-1.1l.21-.54c.1-.27.22-.59.31-.88a8.82,8.82,0,0,0-1.06-7.25A8.46,8.46,0,0,0,19.16,2.1,8.57,8.57,0,0,0,8.7,3.44,8.3,8.3,0,0,0,7.54,4.91a6.5,6.5,0,0,0-.45.82l-.2.42-.13.32c-.35.85-.65,1.71-.94,2.58A39.47,39.47,0,0,0,11.3,44.33Z"/><path fill="#ffffff" d="M89.24,63.34a22.51,22.51,0,0,1,3,5.47A23,23,0,0,1,93,71.48c.09.43.2.85.27,1.27L93.4,74c.06.44.73.78,1.48.75s1.19-.39,1.2-.85V72.48c0-.48-.08-1-.12-1.47a23,23,0,0,0-.55-3.17,24.09,24.09,0,0,0-3-6.73A23.64,23.64,0,0,0,78.08,51a24.37,24.37,0,1,0,0,47.45A23.65,23.65,0,0,0,92.45,88.37a24.15,24.15,0,0,0,3-6.73A23.31,23.31,0,0,0,96,78.46c0-.51.11-1,.13-1.48v-1.4c0-.52-.65-.91-1.43-.87s-1.27.36-1.32.77l-.15,1.22c-.07.41-.18.83-.27,1.27a23.26,23.26,0,0,1-.76,2.67,22.49,22.49,0,0,1-3,5.46A20.14,20.14,0,0,1,77,93.75a19.9,19.9,0,0,1-8.11-.1A19.67,19.67,0,0,1,61.28,90a19.31,19.31,0,0,1,0-30.62,19.68,19.68,0,0,1,7.65-3.62,20,20,0,0,1,8.12-.1A20.18,20.18,0,0,1,89.24,63.34Z"/><path fill="#ffffff" d="M72.29,81.56l.06-.07.24-.3,2-2.43c2.7-3.25,5.7-6.25,7-8.24a4.29,4.29,0,0,0-.73-1.28,3.3,3.3,0,0,0-.84-1,14.37,14.37,0,0,0-4.57,2.27,26.89,26.89,0,0,0-5,4.68c-.19.23-.36.46-.54.69a9.25,9.25,0,0,0-4.17-2.12A3.64,3.64,0,0,0,64.82,75a3.76,3.76,0,0,0-.51,1.13c.64.92,1.62,2.05,2.5,3.46.22.35.44.72.64,1.1.1.19.2.38.3.58l.07.15v0h0l4.43.19h0Z"/><text x="0" y="115" fill="#000000" font-size="5px" font-weight="bold" font-family="'Helvetica Neue', Helvetica, Arial-Unicode, Arial, Sans-serif">Created by Gregor Cresnar</text><text x="0" y="120" fill="#000000" font-size="5px" font-weight="bold" font-family="'Helvetica Neue', Helvetica, Arial-Unicode, Arial, Sans-serif">from the Noun Project</text></svg>