<?xml version="1.0" encoding="UTF-8" standalone="no"?>
<!-- Created with Inkscape (http://www.inkscape.org/) -->

<svg
   xmlns:dc="http://purl.org/dc/elements/1.1/"
   xmlns:cc="http://creativecommons.org/ns#"
   xmlns:rdf="http://www.w3.org/1999/02/22-rdf-syntax-ns#"
   xmlns:svg="http://www.w3.org/2000/svg"
   xmlns="http://www.w3.org/2000/svg"
   xmlns:sodipodi="http://sodipodi.sourceforge.net/DTD/sodipodi-0.dtd"
   xmlns:inkscape="http://www.inkscape.org/namespaces/inkscape"
   width="297mm"
   height="210mm"
   viewBox="0 0 297 210"
   version="1.1"
   id="svg8"
   inkscape:version="0.92.3 (2405546, 2018-03-11)"
   sodipodi:docname="feedback-loop-001.svg">
  <defs
     id="defs2" />
  <sodipodi:namedview
     id="base"
     pagecolor="#ffffff"
     bordercolor="#666666"
     borderopacity="1.0"
     inkscape:pageopacity="0.0"
     inkscape:pageshadow="2"
     inkscape:zoom="1.7567621"
     inkscape:cx="561.25984"
     inkscape:cy="396.85039"
     inkscape:document-units="mm"
     inkscape:current-layer="layer1"
     showgrid="false"
     inkscape:window-width="2736"
     inkscape:window-height="1955"
     inkscape:window-x="-13"
     inkscape:window-y="-13"
     inkscape:window-maximized="1" />
  <metadata
     id="metadata5">
    <rdf:RDF>
      <cc:Work
         rdf:about="">
        <dc:format>image/svg+xml</dc:format>
        <dc:type
           rdf:resource="http://purl.org/dc/dcmitype/StillImage" />
        <dc:title></dc:title>
      </cc:Work>
    </rdf:RDF>
  </metadata>
  <g
     inkscape:label="Layer 1"
     inkscape:groupmode="layer"
     id="layer1"
     transform="translate(0,-87)">
    <path
       style="fill:#6c6c6c;fill-opacity:1;stroke:none;stroke-width:1.36500001;stroke-miterlimit:4;stroke-dasharray:none;stroke-opacity:1"
       id="path846"
       d="m 14.122029,157.18666 c 1.059936,-0.41422 2.210911,-0.51652 3.332635,-0.64555 1.911789,-0.20311 3.829504,-0.34205 5.747063,-0.47693 2.826611,-0.20629 5.660864,-0.26859 8.493311,-0.33854 3.489692,-0.0492 6.979155,-0.11957 10.468932,-0.16205 3.524896,-0.0637 7.047884,0.0323 10.56344,0.28733 2.605823,0.20404 5.201324,0.51536 7.789481,0.87691 1.451052,0.19998 2.905794,0.37762 4.34857,0.63233 0.577151,0.0287 1.057825,0.34041 1.583274,0.5291 0.136068,0.0489 0.278321,0.0787 0.415753,0.12356 0.108075,0.0417 0.222526,0.0767 0.316704,0.14622 -0.08711,0.13277 -0.04671,0.13441 -0.123171,0.10229 0,0 -0.01111,-0.0924 -0.01111,-0.0924 v 0 c 0.05332,-0.0444 0.02693,-0.0435 0.08701,0.0731 -0.103558,-0.003 -0.207653,-0.0304 -0.311553,-0.0343 -0.04486,-0.005 -0.404545,-0.0436 -0.416991,-0.0434 -0.544732,0.008 -1.075748,0.25286 -1.629913,0.16005 -1.470969,-0.0169 -2.938888,-0.11372 -4.40474,-0.23425 -2.579757,-0.19327 -5.158306,-0.40943 -7.742278,-0.53956 -3.48307,-0.15214 -6.967521,-0.18281 -10.453737,-0.1494 -3.488243,-0.002 -6.976068,-0.0564 -10.464279,-0.0688 -2.818061,-0.0158 -5.635906,0.001 -8.453423,0.0628 -1.908447,0.0243 -3.816739,0.0487 -5.724485,0.10886 -1.083305,0.0496 -2.155106,0.17148 -3.226441,0.33832 0,0 -0.184045,-0.65566 -0.184045,-0.65566 z"
       inkscape:connector-curvature="0" />
    <path
       style="fill:#6c6c6c;fill-opacity:1;stroke:none;stroke-width:1.36500001;stroke-miterlimit:4;stroke-dasharray:none;stroke-opacity:1"
       id="path848"
       d="m 53.787767,143.72304 c -0.290886,-0.18737 -0.904544,-0.75773 -0.498121,-1.14448 0.09829,-0.0935 0.258004,-0.084 0.387007,-0.12605 0.114276,0.0212 0.231137,0.0314 0.342825,0.0636 1.002221,0.28845 2.181223,1.33185 2.969554,1.975 2.21611,1.87011 4.211233,3.98053 6.239714,6.04734 1.366562,1.36475 2.723599,2.74392 4.177022,4.01772 0.687948,0.60293 1.031779,0.86447 1.733896,1.42423 0.961919,0.76114 1.981425,1.45195 3.12247,1.91095 0.06709,0.0203 0.133694,0.0422 0.201263,0.0609 0.235731,0.065 -0.03028,-0.0116 -0.143616,0.15428 -0.227139,0.33245 -0.182991,0.35828 -0.104314,0.61352 -0.0098,0.002 -0.01969,0.008 -0.02938,0.006 -0.02759,-0.007 -0.05264,-0.0213 -0.07896,-0.032 -0.03463,-0.01 -0.06877,-0.0215 -0.103878,-0.0294 -0.168643,-0.0379 -0.334703,-0.0413 -0.506703,-0.0414 -0.803294,0.007 -1.496277,0.38811 -2.175487,0.77456 -1.644017,1.05812 -3.067132,2.41675 -4.498178,3.73851 -1.987058,1.88652 -3.947769,3.80076 -5.986071,5.63226 -0.930122,0.78715 -1.818955,1.63312 -2.786777,2.37553 -0.787717,0.60425 -1.654373,1.10086 -2.4804,1.6494 -0.644165,0.45597 -1.295932,0.9192 -2.015487,1.25116 -0.09363,0.12262 -0.308216,-0.0418 -0.116419,-0.12036 0.100203,0.34359 -0.15262,0.0835 -0.0123,0.012 0.05325,0.15143 0.07394,0.1205 -0.0094,0.16408 0,0 -0.07602,-0.0654 -0.07602,-0.0654 v 0 c 0.03072,-0.0889 0.0032,-0.0638 0.160827,-0.0336 -0.05099,0.15269 -0.342188,-0.0677 0.0077,-0.0101 -0.02844,0.10602 -0.240734,0.0469 -0.04971,-0.085 0.555064,-0.54686 1.133375,-1.06965 1.71,-1.59348 0.202575,-0.21137 0.41507,-0.41366 0.607729,-0.63411 1.87516,-2.14569 -0.715735,0.67615 1.298239,-1.57338 0.81347,-0.90861 1.694185,-1.75697 2.549538,-2.62512 1.965256,-1.93721 3.938104,-3.87065 6.010876,-5.69348 1.588889,-1.33371 3.214878,-2.65635 5.052451,-3.63666 0.924124,-0.4234 1.844424,-0.76861 2.879117,-0.70492 0.523875,0.0502 1.05265,0.15563 1.448138,0.52974 0.06295,0.10481 0.179824,0.1925 0.188857,0.31442 0.06662,0.8993 -0.709469,0.90709 -1.330888,0.79731 -1.338268,-0.36131 -2.506133,-1.12899 -3.646414,-1.89506 -0.821758,-0.58731 -1.084098,-0.75763 -1.890455,-1.40851 -1.542638,-1.2452 -2.973787,-2.62256 -4.346152,-4.05126 -1.969818,-2.08456 -3.871457,-4.23152 -5.849371,-6.30803 -0.792956,-0.80762 -1.578301,-1.63328 -2.491515,-2.30668 0.163578,-0.2113 0.09081,-0.0652 0.125126,-0.3758 5.3e-4,-0.005 0.0031,0.009 0.0063,0.0131 0.03158,0.0357 0.06415,0.0706 0.09762,0.1046 0.1124,0.11405 0.231217,0.22167 0.343061,0.33628 0,0 -0.433408,0.52822 -0.433408,0.52822 z"
       inkscape:connector-curvature="0" />
    <path
       style="fill:#32aaec;fill-opacity:1;stroke:none;stroke-width:1.36500001;stroke-miterlimit:4;stroke-dasharray:none;stroke-opacity:1"
       id="path850"
       d="m 82.943847,133.78925 c 0.754436,1.70668 1.067583,3.57171 1.415426,5.39311 0.792646,4.42257 1.470559,8.86292 2.047274,13.31846 0.681657,5.47095 1.025038,10.97653 1.356185,16.47756 0.136933,3.03142 0.460529,6.05847 0.449146,9.09518 -0.02074,0.48219 -0.05886,1.8738 -0.812075,1.94549 -0.489931,0.0466 -0.666059,-0.35328 -0.883853,-0.65545 -0.433541,-0.49024 -0.769001,-1.0576 -1.032053,-1.65482 -0.03212,-0.081 -0.06809,-0.16201 -0.08411,-0.24824 0,0 0.176654,-0.0682 0.176654,-0.0682 v 0 c 0.05401,0.0522 0.09426,0.11979 0.14382,0.17638 0.382026,0.49344 0.756846,0.99264 1.117618,1.50187 0.522502,0.40128 0.271071,0.12258 0.108638,0.20286 -0.08359,0.0413 -0.120721,0.17299 -0.213653,0.18052 -0.05795,0.005 -0.05764,-0.10185 -0.07583,-0.15706 -0.08469,-0.25699 -0.203007,-0.81705 -0.252582,-1.03526 -0.642938,-2.98437 -1.037349,-6.01694 -1.414703,-9.04421 -0.613437,-5.46622 -1.091907,-10.94695 -1.413222,-16.43847 -0.298627,-4.45093 -0.589338,-8.9028 -0.983483,-13.34658 -0.166227,-1.80641 -0.35425,-3.6105 -0.533079,-5.41528 0,0 0.883885,-0.22787 0.883885,-0.22787 z"
       inkscape:connector-curvature="0" />
    <path
       style="fill:#32aaec;fill-opacity:1;stroke:none;stroke-width:1.36500001;stroke-miterlimit:4;stroke-dasharray:none;stroke-opacity:1"
       id="path852"
       d="m 81.515417,129.41169 c -0.08962,0.40645 -0.311856,0.89283 -0.04968,1.27322 0.323334,0.24131 0.743593,0.30028 1.13244,0.35709 0.524489,0.0766 0.959684,0.10699 1.496198,0.15543 3.183432,0.28409 6.350489,0.71985 9.527291,1.06734 5.273209,0.49188 10.566474,0.7205 15.855324,0.97072 5.72816,0.28238 11.4541,0.59942 17.18515,0.81847 4.27792,0.15778 8.55909,0.13966 12.8389,0.10921 1.7813,0.0505 3.64796,-0.10599 5.41995,0.13537 0.21169,0.0288 0.42016,0.0777 0.63025,0.11661 0.75677,0.19626 1.38408,0.58296 1.66003,1.34974 0.14498,0.40283 0.14735,0.7832 0.18254,1.2041 0.032,2.24685 0.1367,4.48929 0.28433,6.73129 0.35372,4.57925 0.67307,9.16073 0.94678,13.74545 0.2028,3.93712 0.55703,7.86283 1.07281,11.77079 0.20181,1.60471 0.53293,3.1885 0.79246,4.78376 0.0719,0.73596 -0.0586,1.32708 -0.80569,1.65649 -0.2806,0.12372 -0.72417,0.12654 -1.0191,0.14607 -2.21658,0.0143 -4.43249,0.0612 -6.64841,0.11628 -5.63225,0.16795 -11.26454,0.33081 -16.89794,0.45622 -7.22462,0.16562 -14.4498,0.0254 -21.67094,-0.20597 -4.502506,-0.15954 -9.004982,-0.32321 -13.508944,-0.4359 -1.103013,-0.0649 -2.206236,-0.0978 -3.310874,-0.0991 0,0 -0.25962,-1.07499 -0.25962,-1.07499 v 0 c 0.30829,-0.14608 0.606833,-0.31481 0.92487,-0.43823 0.898578,-0.34873 1.549479,-0.45611 2.500656,-0.67219 1.495722,-0.22386 1.910805,-0.30646 3.469857,-0.4486 3.398803,-0.30988 6.815735,-0.36912 10.225635,-0.43349 7.21218,-0.0644 14.42422,0.004 21.63533,0.14146 5.65754,0.14411 11.31656,0.32038 16.95995,0.76563 2.20272,0.17658 4.41049,0.33955 6.59595,0.67593 0.10603,0.0141 0.21334,0.0206 0.3181,0.0422 0.033,0.007 0.0943,0.009 0.0919,0.0422 -0.005,0.0654 -0.0817,0.10472 -0.107,0.16528 -0.0744,0.17823 0.008,0.3177 -0.0653,-0.0303 -0.49772,-1.58114 -1.04488,-3.14893 -1.38588,-4.77498 -0.28011,-1.29499 -0.41293,-1.84615 -0.64262,-3.18688 -0.49875,-2.91126 -0.76746,-5.85423 -0.96847,-8.79926 -0.27943,-4.61855 -0.4368,-9.24483 -0.31191,-13.87228 0.0688,-2.25246 0.16652,-4.50326 0.42174,-6.74374 0.0137,-0.18266 0.12969,-0.87303 -0.0765,-1.03401 -0.1667,-0.13011 -0.3738,-0.1419 -0.57162,-0.18341 -1.93697,-0.0922 -3.86182,0.32599 -5.79188,0.4205 -4.32409,0.3528 -8.65976,0.56824 -12.99996,0.48998 -5.76227,-0.0899 -11.52194,-0.30916 -17.27264,-0.69185 -5.34645,-0.36013 -10.702963,-0.72391 -15.991725,-1.62548 -3.165837,-0.54002 -6.315045,-1.16404 -9.456031,-1.83357 -0.915032,-0.22103 -2.22908,-0.43832 -2.929024,-1.13439 -0.09634,-0.0958 -0.171024,-0.21117 -0.256535,-0.31675 -0.05223,-0.11586 -0.118684,-0.22629 -0.156676,-0.34756 -0.172966,-0.55213 -0.005,-1.15558 0.241655,-1.65408 0,0 0.744926,0.33013 0.744926,0.33013 z"
       inkscape:connector-curvature="0" />
    <path
       style="fill:#6c6c6c;fill-opacity:1;stroke:none;stroke-width:1.36500001;stroke-miterlimit:4;stroke-dasharray:none;stroke-opacity:1"
       id="path854"
       d="m 151.23233,152.59596 c 1.37473,-0.16516 2.76123,-0.2292 4.142,-0.33414 2.89635,-0.23322 5.79984,-0.35762 8.7018,-0.49659 4.07378,-0.20261 8.14932,-0.3674 12.22527,-0.51956 3.97123,-0.1615 7.94285,-0.30427 11.91658,-0.38503 2.6823,-0.0633 5.36518,-0.0498 8.04595,0.0577 1.26527,0.0733 2.53458,0.11689 3.79267,0.27712 0.27541,0.0865 0.72587,0.0761 0.92579,0.33617 0.10671,0.13881 0.0889,0.12984 0.013,0.17066 -0.0115,0.16725 -0.0113,0.3357 -0.0345,0.50173 -0.002,0.0168 -0.0423,-0.007 -0.045,-0.0234 -5.3e-4,-0.004 0.15628,-0.61462 0.27088,-0.42421 -0.002,0.002 -0.003,0.004 -0.005,0.006 0,0 -0.28951,0.43352 -0.28951,0.43352 v 0 c -0.004,2.5e-4 -0.008,5.3e-4 -0.0127,8e-4 -0.23176,-0.0485 -0.0657,-0.54838 0.15965,-0.54172 0.0176,5.3e-4 0.0477,-0.0145 0.0527,0.002 0.0519,0.17457 0.0714,0.35716 0.10711,0.53573 -0.19234,0.0922 0.0372,-0.0394 -0.16117,0.20592 -0.22887,0.283 -0.6862,0.28696 -1.00366,0.36302 -1.25641,0.12314 -2.5205,0.11443 -3.78113,0.16214 -2.65197,0.0806 -5.29898,0.25203 -7.94767,0.40296 -3.97007,0.202 -7.94057,0.39904 -11.91398,0.52417 -4.08882,0.13083 -8.17895,0.23443 -12.27027,0.21618 -2.90615,-0.0248 -5.81302,-0.0296 -8.71798,-0.12587 -1.39951,-0.0562 -2.82215,-0.0785 -4.1883,-0.41835 0,0 0.0172,-0.92722 0.0172,-0.92722 z"
       inkscape:connector-curvature="0" />
    <path
       style="fill:#6c6c6c;fill-opacity:1;stroke:none;stroke-width:1.36500001;stroke-miterlimit:4;stroke-dasharray:none;stroke-opacity:1"
       id="path856"
       d="m 190.48902,143.26066 c 1.28284,0.46738 2.52663,1.03426 3.76025,1.61724 1.73336,0.81367 3.42318,1.71721 5.10514,2.63141 1.29865,0.70809 2.58942,1.43193 3.84286,2.21776 0.49587,0.33939 1.04253,0.76008 1.04953,1.42791 0.004,0.42173 -0.1576,0.63643 -0.33771,0.99826 -0.95568,1.32334 -2.08971,2.5087 -3.15805,3.74092 -1.80868,2.11651 -3.60583,4.24364 -5.50707,6.278 -2.22945,2.25441 0.0897,-0.0618 -2.17471,2.11363 -0.31494,0.30257 -0.61559,0.61974 -0.92976,0.92309 -0.58937,0.56906 -1.20262,1.10914 -1.8275,1.63828 -0.27662,0.17867 -0.5027,0.46604 -0.80883,0.60322 -0.51989,-0.63332 -0.22501,-0.4571 0.0585,-0.0351 0.006,0.009 -0.0399,0.0226 -0.0506,0.0262 -0.15015,-0.14776 -0.4675,-0.33393 -0.25623,-0.40342 0,0 0.34568,0.30058 0.34568,0.30058 v 0 c -0.0393,0.21892 -0.26899,-0.0705 -0.4347,-0.19816 0.0687,-0.39409 0.52404,0.31096 0.41555,0.25002 -0.14034,-0.0788 -0.267,-0.17984 -0.40049,-0.26975 0.0549,-0.24721 0.45999,-0.60067 0.54762,-0.82151 0.48659,-0.65443 0.98255,-1.3005 1.50234,-1.92924 0.27691,-0.33497 0.56842,-0.6578 0.84175,-0.99571 0.31302,-0.38698 0.61129,-0.78566 0.91693,-1.1785 0.31789,-0.38912 0.63578,-0.77824 0.95367,-1.16737 1.78473,-2.15809 3.68422,-4.21709 5.63506,-6.22596 1.10024,-1.10274 2.24515,-2.15755 3.35599,-3.24899 0.0612,-0.0686 0.11943,-0.13988 0.18359,-0.20567 0.0253,-0.0259 0.055,-0.0473 0.0841,-0.0688 0.0144,-0.0106 0.0489,-0.01 0.0461,-0.0275 -0.0372,-0.2374 -0.52079,-0.35078 -0.64374,-0.47003 -1.31432,-0.65605 -2.63596,-1.29747 -3.93173,-1.99013 -1.68708,-0.87769 -3.36635,-1.77046 -5.05665,-2.64208 -1.23349,-0.64724 -2.5257,-1.22707 -3.63783,-2.07438 0,0 0.5109,-0.81425 0.5109,-0.81425 z"
       inkscape:connector-curvature="0" />
    <path
       style="fill:#6c6c6c;fill-opacity:1;stroke:none;stroke-width:1.36500001;stroke-miterlimit:4;stroke-dasharray:none;stroke-opacity:1"
       id="path858"
       d="m 25.105249,146.53814 c 0.335088,0.45083 0.69003,0.9048 0.96038,1.39944 0.152327,0.27871 0.197826,0.45365 0.297279,0.74845 0.01961,0.30697 0.21322,0.53912 0.3345,0.80817 0.0024,0.006 0.0046,0.012 0.0069,0.018 2.09e-4,0.002 5.3e-4,0.004 5.3e-4,0.006 0,0 -0.255095,0.20205 -0.255095,0.20205 v 0 c -0.04466,-0.0359 0.04001,0.0339 -0.02849,-0.0229 -0.22182,-0.20185 -0.37528,-0.46972 -0.659313,-0.59748 -0.246727,-0.2059 -0.40231,-0.31523 -0.60575,-0.57566 -0.35313,-0.45205 -0.607439,-0.99089 -0.854584,-1.50409 0,0 0.803561,-0.48213 0.803561,-0.48213 z"
       inkscape:connector-curvature="0" />
    <path
       style="fill:#6c6c6c;fill-opacity:1;stroke:none;stroke-width:1.36500001;stroke-miterlimit:4;stroke-dasharray:none;stroke-opacity:1"
       id="path860"
       d="m 19.244275,141.66666 c 0.026,0.11015 0.028,0.22892 0.07801,0.33044 0.05348,0.10857 0.152159,0.1883 0.225102,0.28487 0.202773,0.26847 0.386505,0.55074 0.563228,0.83677 0.07329,0.12353 0.04055,0.0669 0.09884,0.16957 0,0 -0.48268,0.37678 -0.48268,0.37678 v 0 c -0.08674,-0.0832 -0.03919,-0.0367 -0.142043,-0.13997 -0.23455,-0.24614 -0.462239,-0.4998 -0.666665,-0.77191 -0.07453,-0.0992 -0.126278,-0.2173 -0.215501,-0.30354 -0.09184,-0.0888 -0.212453,-0.14183 -0.318679,-0.21275 0,0 0.860389,-0.57026 0.860389,-0.57026 z"
       inkscape:connector-curvature="0" />
    <path
       style="fill:#6c6c6c;fill-opacity:1;stroke:none;stroke-width:1.36500001;stroke-miterlimit:4;stroke-dasharray:none;stroke-opacity:1"
       id="path862"
       d="m 31.490933,145.70759 c 0.201028,0.36659 0.337944,0.76242 0.516342,1.13943 -0.299767,-0.18377 -0.127122,-0.1423 -0.605668,0.067 -0.02125,0.009 -0.03832,0.0529 -0.05724,0.0395 -0.03284,-0.0232 -0.116342,-0.31539 -0.121531,-0.33542 -0.02561,-0.0988 -0.04417,-0.19927 -0.06625,-0.29891 -0.135409,-0.74494 -0.11542,-1.49729 0.05293,-2.23303 0.187352,-0.62924 0.511167,-1.05862 1.188985,-1.19021 0.122499,-0.0238 0.248565,-0.0224 0.372848,-0.0336 0.56311,0.002 1.138983,0.093 1.668864,0.29033 0.309777,0.11535 0.507093,0.24188 0.792568,0.40353 0.384315,0.17434 0.762704,0.36713 1.110985,0.60664 0.04217,0.0304 0.08297,0.0626 0.124886,0.0933 0,0 -0.470278,0.66553 -0.470278,0.66553 v 0 c 0.05938,0.044 -0.0067,0.0103 -0.03114,0.01 -0.380892,-0.11247 -0.753891,-0.25031 -1.126456,-0.38726 -0.198107,-0.0457 -0.585168,-0.13164 -0.780129,-0.18958 -0.412195,-0.1225 -0.814724,-0.29355 -1.25009,-0.32058 -0.05951,-0.005 -0.119269,-0.008 -0.178515,-0.0152 -0.02638,-0.003 -0.05343,-0.007 -0.07787,-0.0173 -0.01153,-0.005 -0.01384,-0.0304 -0.02601,-0.0273 -0.119452,0.0308 -0.144267,0.29755 -0.183086,0.36688 -0.132065,0.60481 -0.194805,1.22264 -0.174422,1.84216 0.0062,0.17256 0.08396,0.90824 -0.02752,1.0279 -0.126968,0.1363 -0.295545,0.25062 -0.477568,0.29018 -0.09714,0.0211 -0.179612,-0.0853 -0.26942,-0.12786 -0.362913,-0.37505 -0.556318,-0.88144 -0.684307,-1.38007 0,0 0.779079,-0.28566 0.779079,-0.28566 z"
       inkscape:connector-curvature="0" />
    <path
       style="fill:#6c6c6c;fill-opacity:1;stroke:none;stroke-width:1.36500001;stroke-miterlimit:4;stroke-dasharray:none;stroke-opacity:1"
       id="path864"
       d="m 38.518414,141.29536 c 1.047666,0.92739 2.056421,1.89827 3.075945,2.8564 1.168239,1.09869 2.408415,2.11448 3.743124,3.00334 0.640207,0.46045 1.16368,0.54805 -0.0575,1.29797 -0.113279,0.0696 -0.257365,-0.0674 -0.383532,-0.10927 -0.199655,-0.0663 -0.395576,-0.14328 -0.593362,-0.21492 -1.663849,-0.65736 -3.292632,-1.42721 -4.816838,-2.36783 -0.3546,-0.21884 -0.696481,-0.45764 -1.04472,-0.68646 -1.419159,-1.03614 -2.992718,-2.18431 -3.596545,-3.92044 -0.102304,-0.29415 -0.13707,-0.60759 -0.205608,-0.91139 0.0068,-0.30586 -0.02347,-0.61481 0.02037,-0.91759 0.123526,-0.85295 0.564579,-1.66821 1.183264,-2.26278 0.554967,-0.53335 0.759722,-0.56203 1.443996,-0.88492 0.278064,-0.0591 0.551214,-0.1502 0.834197,-0.1773 0.861052,-0.0825 1.735939,0.14627 2.445739,0.64182 0.672457,0.46948 0.739624,0.6942 1.202021,1.35974 0.118766,0.29536 0.270261,0.57958 0.356298,0.88607 0.346901,1.23579 0.185584,2.66897 -0.351758,3.82844 -0.130077,0.28069 -0.317426,0.5311 -0.476139,0.79665 -0.838163,0.97686 -0.222443,0.34787 -1.157105,1.11035 -0.151522,0.12361 -0.288891,0.26397 -0.440949,0.38692 -0.2715,0.21952 -0.562486,0.39482 -0.871614,0.5532 -0.0392,0.023 -0.457793,0.18319 -0.503018,0.13691 -0.105061,-0.1075 -0.180491,-0.24042 -0.270735,-0.36064 0.02379,0.006 0.0045,-0.0649 0.02569,-0.0601 0.183586,0.042 0.365868,0.0923 0.54274,0.15704 0.01675,0.006 -0.0054,0.0513 -0.02299,0.0483 -0.184589,-0.0317 -0.367561,-0.0722 -0.551344,-0.10833 0.01561,-0.0418 0.007,-0.0258 0.0218,-0.0502 0,0 0.536829,0.0276 0.536829,0.0276 v 0 c 0.01238,0.0254 0.0053,0.009 0.01659,0.0517 -0.186391,0.0153 -0.37252,0.0342 -0.55917,0.0458 -0.01675,0.001 -0.03415,-0.0461 -0.01741,-0.0472 0.145402,-0.01 0.512673,-0.0568 0.566635,0.004 -0.09488,-0.0827 -0.183658,-0.17297 -0.284623,-0.24812 -0.01386,-0.0103 -0.06268,0.0118 -0.0518,-0.002 0.04822,-0.0595 0.14582,-0.0808 0.185449,-0.14776 0.281618,-0.24654 0.784487,-0.69629 0.96914,-0.98727 0.09837,-0.155 0.44995,-1.0242 0.508643,-1.16559 0.462793,-1.33737 0.910783,-2.57265 0.432665,-3.98242 -0.206441,-0.3971 -0.255926,-0.58378 -0.592309,-0.88511 -0.521433,-0.46709 -1.198222,-0.55497 -1.859143,-0.40722 -0.155175,0.0647 -0.319278,0.11113 -0.465524,0.19404 -0.585906,0.33217 -1.010761,0.95083 -1.133631,1.61092 -0.02941,0.15801 -0.02193,0.3207 -0.03291,0.48105 0.03853,0.16952 0.05326,0.34628 0.115585,0.50856 0.48763,1.26968 2.125613,2.24087 3.150074,3.03021 1.766835,1.20191 3.591507,2.30832 5.420558,3.41228 0.186024,0.12563 0.376995,0.24424 0.558067,0.3769 0.140857,0.1032 0.394216,0.15586 0.406811,0.33002 0.111625,1.54376 -0.534731,1.07469 -1.286495,0.76943 -0.555402,-0.30091 -0.678021,-0.35095 -1.225703,-0.72231 -1.022593,-0.69339 -1.94319,-1.52107 -2.840125,-2.36696 -1.047297,-1.01169 -2.130581,-2.04485 -2.86962,-3.31235 0,0 0.799954,-0.59997 0.799954,-0.59997 z"
       inkscape:connector-curvature="0" />
    <path
       style="fill:#6c6c6c;fill-opacity:1;stroke:none;stroke-width:1.36500001;stroke-miterlimit:4;stroke-dasharray:none;stroke-opacity:1"
       id="path866"
       d="m 43.918695,136.09482 c 0.282818,0.57517 0.541962,1.1624 0.960985,1.65338 0.311637,0.2822 0.323022,0.22518 0.618525,0.0217 0.536614,-0.41392 0.833964,-1.01638 1.076401,-1.63232 0.270161,-0.7275 0.220792,-1.28834 -0.01106,-2.00486 -0.128019,-0.35507 -0.496668,-0.9892 -0.27958,-1.36409 0.119242,-0.20592 0.34681,-0.32589 0.520216,-0.48884 0.138969,-0.0181 0.276949,-0.0472 0.416909,-0.0544 0.09758,-0.005 0.575056,0.0372 0.662228,0.0449 0.434663,0.0383 0.859803,0.0844 1.290233,0.15726 0.504113,0.0903 1.008464,0.1893 1.506244,0.31053 0.163962,0.0399 0.321992,0.10655 0.488905,0.13142 0.258492,0.0385 0.522631,0.008 0.783926,0.013 0.245403,0.0204 0.496096,-0.005 0.74091,0.0268 -0.161989,0.0917 0.0021,-0.008 -0.02792,0.52193 -0.0011,0.0204 -0.03321,-0.0138 -0.03119,-0.0229 0.0391,-0.1753 0.08073,-0.35003 0.1211,-0.52505 0.02728,0.005 0.03978,0.0152 0.05656,0.0285 0,0 -0.04077,0.50705 -0.04077,0.50705 v 0 c -0.02045,0.0102 -0.03478,0.0182 -0.06226,0.0186 -0.01323,-0.17951 -0.02943,-0.35883 -0.03967,-0.53853 -7.94e-4,-0.0146 0.03546,-0.0311 0.04032,-0.0173 0.05958,0.1691 0.112033,0.34155 0.146886,0.51742 1.27e-4,5.3e-4 -0.06228,0.0249 -0.06954,0.0277 -0.255302,0.0938 -0.527785,0.13116 -0.794311,0.17745 -0.272621,0.035 -0.549526,0.0363 -0.820369,0.0831 -0.183425,0.0317 -0.358453,0.10281 -0.541602,0.13605 -0.535409,0.0972 -1.088626,0.0972 -1.629982,0.0806 -0.452766,-0.0301 -0.888394,-0.0838 -1.33345,-0.17332 -0.101351,-0.0204 -0.20212,-0.0436 -0.302797,-0.0671 -0.05934,-0.0138 -0.13377,-0.002 -0.177199,-0.0449 -0.02196,-0.0216 0.04516,-0.0419 0.06774,-0.0628 0.464643,-0.60175 0.283414,-0.18403 0.315121,-0.73057 5.3e-4,-0.0108 0.0195,0.0109 0.02567,0.0198 0.04035,0.0583 0.077,0.11921 0.112842,0.18042 0.185219,0.31633 0.152903,0.27184 0.314399,0.63059 0.04632,0.14102 0.103402,0.27894 0.138946,0.42305 0.218255,0.88492 0.08549,1.78856 -0.237916,2.62915 -0.407096,0.91441 -0.921832,1.77682 -1.812403,2.29439 -0.13483,0.0586 -0.263922,0.13269 -0.404493,0.17569 -0.702373,0.21484 -1.342308,-0.0461 -1.859653,-0.52458 -0.567383,-0.63599 -0.990722,-1.38101 -1.098336,-2.23996 0,0 1.16943,-0.31893 1.16943,-0.31893 z"
       inkscape:connector-curvature="0" />
    <path
       style="fill:#6c6c6c;fill-opacity:1;stroke:none;stroke-width:1.36500001;stroke-miterlimit:4;stroke-dasharray:none;stroke-opacity:1"
       id="path868"
       d="m 43.689677,120.32514 c 0.998384,1.10448 2.067406,2.14008 3.14049,3.171 1.775619,1.63773 3.682466,3.12455 5.568564,4.63111 0.855374,0.75905 2.377575,1.81274 2.639287,3.00782 0.03339,0.15243 0.01331,0.31181 0.01998,0.46772 -0.05763,0.14951 -0.0827,0.31611 -0.172894,0.44855 -0.240554,0.35323 -0.680321,0.60946 -1.048824,0.78418 -0.518044,0.24563 -1.2021,0.45568 -1.758667,0.56515 -0.33364,0.0656 -0.673913,0.0913 -1.010867,0.13691 -0.337516,0.0175 -0.674585,0.055 -1.012547,0.0526 -1.060175,-0.007 -2.691837,-0.20175 -3.370001,-1.15326 -0.201665,-0.28296 -0.273698,-0.63877 -0.410549,-0.95815 0.03576,-0.38605 0.0066,-0.78376 0.107273,-1.15816 0.395515,-1.47079 1.671897,-2.65748 2.727672,-3.6652 0.492381,-0.46997 1.010031,-0.91274 1.512948,-1.37142 0.472268,-0.43073 0.941726,-0.86453 1.412589,-1.29679 1.377707,-1.16508 2.787536,-2.31205 4.334103,-3.24888 0.05644,-0.0314 0.11231,-0.0637 0.169325,-0.094 0.07903,-0.042 0.197593,-0.0899 0.198707,-0.0884 0.37043,0.50784 0.498131,0.41679 0.286901,0.5395 -0.208428,0.0962 -0.586004,-0.37138 -0.358489,-0.48001 0,0 0.428847,0.38735 0.428847,0.38735 v 0 c -0.07829,0.23584 -0.513529,-0.0927 -0.49903,-0.32095 0.08886,-0.17671 0.5183,0.17816 0.464981,0.36863 -0.01307,0.0467 -0.05404,0.0807 -0.08407,0.11883 -0.03834,0.0487 -0.07786,0.0964 -0.116795,0.14458 -1.150263,1.36469 -2.394654,2.64748 -3.645299,3.9194 -0.448808,0.43806 -0.908601,0.86514 -1.346423,1.31417 -0.730199,0.7489 -1.712674,1.83763 -2.394018,2.66368 -0.255741,0.31005 -0.49099,0.63647 -0.738889,0.95283 -0.488598,0.62353 -0.321146,0.43358 -0.691079,0.82447 -0.127756,0.0842 -0.243919,0.10255 0.02487,0.25294 0.758495,0.42439 2.071717,0.30783 2.910398,0.42356 0.843876,0.0419 1.688061,0.11083 2.532992,0.12665 0.120266,0.002 0.707696,0.0107 0.896699,-0.0314 0.0549,-0.0122 0.09934,-0.0528 0.149003,-0.0791 -0.02609,-0.0537 -0.03521,-0.1198 -0.07828,-0.16119 -0.121248,-0.11651 -0.758309,-0.47726 -0.822227,-0.51561 -0.787876,-0.47276 -1.552506,-0.98025 -2.30242,-1.51142 -2.011836,-1.47463 -3.980211,-3.02129 -5.705197,-4.83168 -1.061347,-1.134 -2.153097,-2.2856 -2.900619,-3.6593 0,0 0.941562,-0.67674 0.941562,-0.67674 z"
       inkscape:connector-curvature="0" />
    <path
       style="fill:#6c6c6c;fill-opacity:1;stroke:none;stroke-width:1.36500001;stroke-miterlimit:4;stroke-dasharray:none;stroke-opacity:1"
       id="path870"
       d="m 166.84543,135.86267 c -0.46945,0.83711 -0.48538,1.69353 -0.42432,2.62683 0.11605,0.85998 0.37815,1.86983 1.20549,2.32516 0.12478,0.0687 0.26828,0.0958 0.40242,0.14362 0.14802,0.003 0.29705,0.0277 0.44404,0.0101 0.83154,-0.0999 1.52622,-0.74299 2.0326,-1.36142 0.16961,-0.20713 0.31209,-0.43506 0.46813,-0.6526 0.5358,-0.9207 1.17698,-2.25196 0.88716,-3.35276 -0.0343,-0.13032 -0.11092,-0.24563 -0.16637,-0.36844 -0.0869,-0.0797 -0.16204,-0.17448 -0.26061,-0.23919 -0.64531,-0.42365 -1.7367,-0.26645 -2.46222,-0.24334 -0.42299,0.0172 -0.76919,0.0504 -1.19066,-0.007 -0.52554,-0.0717 -0.50616,-0.14571 -0.998,-0.24686 -0.2,-0.0411 -0.40538,-0.0515 -0.60594,-0.0898 -0.1651,-0.0482 -0.35507,-0.0762 -0.49208,-0.19 0.0137,-0.22753 0.11202,-0.30526 0.1284,0.007 8e-4,0.014 -0.0261,0.0102 -0.0391,0.0154 0,0 -0.11991,-0.14678 -0.11991,-0.14678 v 0 c 0.11772,-0.18203 0.30582,0.29476 0.13022,-0.0188 0.12858,-0.009 0.2869,0.0375 0.42164,0.0172 0.0939,-0.001 0.50511,-0.004 0.56684,-0.0174 0.3321,-0.0739 0.55445,-0.25055 0.87023,-0.37498 0.51004,-0.20098 0.68125,-0.20415 1.22891,-0.30565 0.23575,-0.0258 0.47035,-0.0661 0.70724,-0.0773 0.99877,-0.047 2.12736,0.10086 2.87207,0.84315 0.18157,0.18098 0.29883,0.41662 0.44824,0.62492 0.0792,0.23865 0.19232,0.46862 0.23763,0.71595 0.2668,1.45615 -0.50461,2.95309 -1.21688,4.1574 -0.1941,0.25396 -0.37169,0.52145 -0.58232,0.7619 -0.74891,0.85496 -1.76558,1.60661 -2.94672,1.64934 -0.25767,0.009 -0.51291,-0.0532 -0.76937,-0.0798 -0.23196,-0.0967 -0.47996,-0.16143 -0.69588,-0.28999 -1.10786,-0.65963 -1.52057,-1.95974 -1.6487,-3.16298 -0.005,-0.23783 -0.024,-0.47581 -0.0143,-0.71349 0.037,-0.91319 0.28076,-1.8504 0.91768,-2.52927 0,0 0.66449,0.56956 0.66449,0.56956 z"
       inkscape:connector-curvature="0" />
    <path
       style="fill:#6c6c6c;fill-opacity:1;stroke:none;stroke-width:1.36500001;stroke-miterlimit:4;stroke-dasharray:none;stroke-opacity:1"
       id="path872"
       d="m 173.45639,132.26078 c 0.0897,0.6777 0.2917,1.3424 0.74528,1.87076 0.0921,0.1073 0.20333,0.19661 0.305,0.29491 0.50749,0.38341 1.08676,0.47387 1.6443,0.13207 0.11584,-0.071 0.21684,-0.16381 0.32525,-0.24572 0.72134,-0.68916 1.03768,-1.63513 1.31244,-2.5672 0.18681,-0.50983 0.33807,-1.30259 0.96112,-1.47531 0.15933,-0.0442 0.33058,-0.008 0.49586,-0.0123 0.56926,0.17509 1.07772,0.50145 1.5519,0.85565 0.14166,0.10582 0.26379,0.23737 0.41088,0.3355 0.13388,0.0893 0.28515,0.14929 0.42772,0.22394 0.37704,0.20732 0.7574,0.41071 1.12002,0.64291 0.20739,0.0879 -0.16163,0.67578 -0.27005,0.46209 0,0 0.2713,-0.45834 0.2713,-0.45834 v 0 c 0.26005,0.0116 0.016,0.64904 -0.21808,0.52523 -0.43443,-0.0992 -0.85158,-0.26312 -1.26381,-0.42928 -0.15215,-0.0685 -0.29944,-0.14901 -0.45646,-0.20544 -0.1797,-0.0646 -0.37177,-0.0908 -0.55103,-0.15659 -0.43506,-0.15966 -0.86903,-0.39757 -1.22767,-0.69087 0.30022,-0.1673 -0.0128,0.0246 0.25813,-0.1987 0.0107,-0.009 -0.0135,0.0245 -0.0174,0.0378 -0.0915,0.3083 -0.13995,0.62767 -0.23269,0.93572 -0.38848,1.19309 -0.9137,2.34393 -1.91367,3.15253 -0.4629,0.28952 -0.60964,0.43455 -1.1491,0.56203 -0.86284,0.20391 -1.65182,-0.0704 -2.31843,-0.62097 -0.14183,-0.15571 -0.29847,-0.29912 -0.42551,-0.46712 -0.54493,-0.72065 -0.78851,-1.63354 -0.70377,-2.52709 0,0 0.91849,0.0238 0.91849,0.0238 z"
       inkscape:connector-curvature="0" />
    <path
       style="fill:#6c6c6c;fill-opacity:1;stroke:none;stroke-width:1.36500001;stroke-miterlimit:4;stroke-dasharray:none;stroke-opacity:1"
       id="path874"
       d="m 173.58642,116.66403 c 1.40934,0.77853 2.58227,1.91522 3.75905,2.99758 2.25808,2.12087 4.32221,4.43608 6.38476,6.74419 0.84233,0.97328 1.727,1.91097 2.56035,2.89211 0.28089,0.3307 0.79754,0.96326 1.04032,1.35768 0.10197,0.16567 0.1743,0.34785 0.26145,0.52177 0.051,0.24442 0.20237,0.66057 -0.0111,0.90093 -0.3083,0.34719 -0.71078,0.28948 -1.1028,0.25153 -0.22263,-0.0216 -1.32465,-0.20151 -1.49117,-0.2281 -1.78017,-0.28845 -3.53961,-0.68537 -5.28184,-1.14828 -0.57894,-0.17468 -2.10045,-0.52667 -2.39197,-1.14309 -0.10758,-0.22749 -0.11279,-0.49049 -0.16918,-0.73574 0.10688,-0.22043 0.17663,-0.46312 0.32064,-0.6613 0.18528,-0.25498 0.77885,-0.65402 1.03485,-0.80131 0.72945,-0.41972 1.52848,-0.72846 2.30723,-1.03972 0.60206,-0.26823 1.24043,-0.43917 1.85245,-0.68031 0.27676,-0.10905 0.54296,-0.24333 0.81697,-0.35913 0.52874,-0.22345 1.06613,-0.42151 1.60783,-0.61049 0.23638,-0.052 0.46557,-0.18403 0.71062,-0.20314 0.004,-5.3e-4 0.009,-0.001 0.0133,-0.002 0.0393,0.15176 0.0908,0.30087 0.11798,0.45526 0.0152,0.0861 -0.57473,-0.38916 -0.13638,-0.45955 0.16921,0.008 0.30873,0.4306 0.11503,0.45579 0,0 -0.20139,-0.41203 -0.20139,-0.41203 v 0 c 0.13897,-0.13746 0.38389,0.23371 0.28894,0.37079 -0.14549,0.1355 -0.0303,0.0475 -0.30833,-0.35217 -0.009,-0.0132 0.0199,-0.0505 0.0299,-0.0379 0.0972,0.12287 0.10753,0.37197 0.26616,0.38739 -0.15826,0.18233 -0.42323,0.2601 -0.60037,0.41671 -0.48667,0.30129 -0.97729,0.59455 -1.48061,0.86761 -0.26071,0.14143 -0.53097,0.26533 -0.78746,0.41426 -0.56599,0.32863 -1.09214,0.72298 -1.66701,1.03735 -0.68685,0.41137 -1.37891,0.80352 -2.08665,1.17777 -0.14903,0.0788 -0.29809,0.15757 -0.44862,0.23345 -0.0779,0.0393 -0.15393,0.14003 -0.23647,0.1119 -0.0669,-0.0228 -0.0294,-0.13835 -0.0441,-0.20753 -0.065,-0.11994 -0.11995,-0.24593 -0.19506,-0.35983 -0.0152,-0.0231 -0.0981,-0.0478 -0.0708,-0.0433 0.0666,0.0109 0.1271,0.0455 0.19218,0.0632 0.52935,0.14361 1.07168,0.23581 1.60139,0.37807 1.76374,0.44676 3.49392,1.02195 5.15753,1.76249 1.16063,0.50511 0.30356,0.13802 1.3094,0.5561 0.1114,0.0463 0.26194,0.0438 0.3333,0.14105 0.0449,0.0612 -0.0525,0.1427 -0.0711,0.21627 -0.0128,0.0505 0.0289,0.14742 -0.0228,0.15475 -0.0774,0.011 -0.13301,-0.0821 -0.19952,-0.12319 -1.62187,-1.21437 -3.01196,-2.70506 -4.4336,-4.13964 -2.10582,-2.23539 -4.10677,-4.56349 -6.16129,-6.84556 -1.033,-1.12887 -2.07861,-2.24686 -3.20606,-3.28288 0,0 0.72406,-0.99026 0.72406,-0.99026 z"
       inkscape:connector-curvature="0" />
    <path
       style="fill:#6c6c6c;fill-opacity:1;stroke:none;stroke-width:1.36500001;stroke-miterlimit:4;stroke-dasharray:none;stroke-opacity:1"
       id="path876"
       d="m 193.0275,126.264 c 0.6902,1.18861 1.39678,2.36759 2.08803,3.55561 0.78536,1.41095 1.60172,2.81472 2.15304,4.33714 0.1896,0.78802 0.16269,1.55767 -0.80878,1.76932 -0.40846,0.089 -0.89338,-0.0774 -1.27602,-0.16985 -1.96476,-0.71767 -3.45919,-2.2179 -4.871,-3.70257 -1.26866,-1.43087 -2.40703,-3.00322 -3.15024,-4.77583 -0.12955,-0.30898 -0.23131,-0.62888 -0.34696,-0.94332 -0.36789,-1.32386 -0.53553,-2.85115 0.26909,-4.06512 0.13538,-0.20427 0.32054,-0.37076 0.4808,-0.55614 0.20136,-0.13194 0.38635,-0.29312 0.60407,-0.39584 0.92345,-0.43568 1.97846,-0.2483 2.85812,0.19425 0.2298,0.11561 0.43947,0.26754 0.6592,0.4013 0.83625,0.63268 1.45662,1.47468 1.70619,2.50429 0.16157,0.66656 0.10936,0.84239 0.0865,1.52084 -0.0556,0.24704 -0.0911,0.49948 -0.16676,0.74113 -0.25796,0.82372 -0.81755,1.72564 -1.6422,2.08524 -0.16499,0.0719 -0.34944,0.0865 -0.52416,0.12977 -0.43132,0.001 -0.88843,0.11807 -1.27644,-0.12367 -0.0671,-0.053 -0.17191,-0.162 -0.0858,-0.25268 0.003,-0.004 0.007,-0.007 0.0103,-0.0106 0.0474,0.0509 0.10348,0.0949 0.14215,0.15273 0.0409,0.0611 -0.27589,0.0213 -0.16069,-0.14326 0.004,-0.004 0.008,-0.009 0.0123,-0.0131 0.002,-2.6e-4 0.003,-5.3e-4 0.005,-8e-4 0,0 0.15561,0.0535 0.15561,0.0535 v 0 c 0.001,0.001 0.002,0.002 0.003,0.003 5.3e-4,0.006 0.001,0.0119 0.002,0.0179 -0.0106,0.22276 -0.26671,0.0212 -0.21434,0.0146 0.0649,-0.008 0.13939,0.0428 0.19588,0.008 -0.003,-0.006 -0.047,-0.0616 0.0267,-0.0134 0.1756,0.0574 0.47689,0.078 0.63712,-0.0227 0.0812,-0.0511 0.13204,-0.1392 0.19805,-0.2088 0.46303,-0.8107 1.08543,-1.55061 1.24852,-2.49805 0.0154,-0.16822 0.0466,-0.33574 0.0461,-0.50466 -0.003,-0.90828 -0.46076,-1.67343 -1.16314,-2.22123 -0.56501,-0.36267 -1.27901,-0.81157 -1.98546,-0.56266 -0.095,0.0335 -0.1776,0.095 -0.26639,0.14247 -0.0761,0.078 -0.16682,0.14395 -0.22837,0.23385 -0.55577,0.81176 -0.26258,1.90981 -0.007,2.76241 0.10745,0.26368 0.20373,0.5322 0.32235,0.79105 0.72347,1.57886 1.79008,2.9763 2.9029,4.29683 1.21374,1.33728 2.44774,2.70051 3.98814,3.6706 0.12938,0.0738 0.26103,0.14383 0.38816,0.22147 0.0623,0.0381 0.14792,0.0596 0.17973,0.12534 0.0241,0.0499 -0.0355,0.1061 -0.041,0.1613 -0.004,0.0416 -2.6e-4,0.16478 0.0124,0.12491 0.0357,-0.11201 -0.10577,-0.45079 -0.11278,-0.4725 -0.62269,-1.43062 -1.49325,-2.73325 -2.20572,-4.11889 -0.66469,-1.25916 -1.38052,-2.5202 -1.76565,-3.8991 0,0 0.91779,-0.34417 0.91779,-0.34417 z"
       inkscape:connector-curvature="0" />
    <path
       style="fill:#6c6c6c;fill-opacity:1;stroke:none;stroke-width:1.36500001;stroke-miterlimit:4;stroke-dasharray:none;stroke-opacity:1"
       id="path878"
       d="m 194.80919,122.73057 c 0.66866,0.53736 1.30979,1.07751 2.0918,1.4436 0.69203,0.19444 0.84412,0.10293 1.12066,-0.51916 0.26842,-0.75049 0.34241,-1.55127 0.46987,-2.33374 0.0853,-0.51011 0.27455,-1.02516 0.79087,-1.24823 0.34617,-0.14956 0.5504,-0.0903 0.90306,-0.0603 0.89722,0.17643 1.69482,0.60655 2.43755,1.12366 0.38257,0.12714 0.76703,0.24916 1.14646,0.38555 0.0155,10e-4 0.0271,0.0154 0.0406,0.0232 0,0 -0.0189,0.52737 -0.0189,0.52737 v 0 c -0.0387,0.003 -0.0774,0.005 -0.11615,0.005 -0.43229,-0.008 -0.86009,-0.0895 -1.28007,-0.18657 -0.16297,-0.002 -0.32657,0.009 -0.4889,-0.005 -0.68391,-0.061 -1.31695,-0.32681 -1.94418,-0.58537 -0.0404,-0.0199 -0.0935,-0.0243 -0.12131,-0.0597 -0.0364,-0.0464 0.0565,-0.10423 0.0752,-0.16014 0.002,-0.006 -0.0176,-0.007 -0.02,-2.6e-4 -0.0172,0.0436 -0.0266,0.0902 -0.0338,0.13654 -0.0146,0.0936 -0.021,0.18836 -0.0314,0.28255 -0.10084,0.97221 -0.26294,1.94011 -0.75871,2.80079 -0.26189,0.36619 -0.34382,0.55159 -0.72688,0.80687 -0.60477,0.40305 -1.30122,0.34113 -1.943,0.0789 -0.87874,-0.45084 -1.7146,-1.02913 -2.27863,-1.85687 0,0 0.68583,-0.59811 0.68583,-0.59811 z"
       inkscape:connector-curvature="0" />
    <path
       style="fill:#6c6c6c;fill-opacity:1;stroke:none;stroke-width:1.36500001;stroke-miterlimit:4;stroke-dasharray:none;stroke-opacity:1"
       id="path880"
       d="m 197.225,107.4117 c 0.89582,1.30872 1.96179,2.49151 2.98902,3.69662 1.86737,2.16722 3.80235,4.2748 5.72479,6.39294 0.65715,0.74851 1.34143,1.47634 1.92352,2.28698 0.1212,0.1688 0.42843,0.61711 0.51048,0.85957 0.0262,0.0773 0.0167,0.16234 0.0251,0.24351 -0.1443,0.16015 -0.23551,0.3938 -0.4329,0.48046 -0.12536,0.055 -0.26305,-0.0762 -0.39352,-0.11765 -0.18182,-0.0578 -0.36201,-0.12063 -0.54323,-0.18029 -0.87757,-0.28893 -1.76136,-0.54636 -2.65013,-0.79865 -1.94186,-0.54166 -3.91941,-0.94656 -5.83988,-1.56284 -1.10452,-0.42864 -1.95711,-1.0461 -1.18008,-2.37318 0.26806,-0.45782 1.38065,-1.20878 1.73753,-1.47377 1.65383,-1.07183 3.42231,-1.94328 5.16129,-2.86293 0.64898,-0.34321 1.28714,-0.70679 1.93902,-1.04446 1.22231,-0.63314 1.85481,-0.91172 3.05854,-1.46885 0.98754,-0.40223 1.94957,-0.90122 2.97877,-1.19634 0.27585,-0.11959 0.60365,0.66387 0.28851,0.64344 -0.0886,-0.21431 -0.18917,-0.42407 -0.26592,-0.64292 -0.006,-0.0161 0.0443,-0.0195 0.051,-0.004 0.0915,0.21376 0.18911,0.42551 0.26456,0.64545 0.003,0.008 -0.046,0.009 -0.0568,0.009 -8e-4,-0.001 -0.002,-0.002 -0.003,-0.003 0,0 -0.32116,-0.58432 -0.32116,-0.58432 v 0 c -5.3e-4,-0.001 -7.9e-4,-0.003 -10e-4,-0.004 0.006,-0.009 0.0332,-0.0493 0.0382,-0.043 0.44825,0.56071 0.62553,1.00797 -0.0348,0.0451 0.18876,-0.2683 0.65318,0.40633 0.40408,0.58182 -0.78575,0.72946 -1.71594,1.29005 -2.57505,1.9236 -1.10519,0.73579 -1.67318,1.1302 -2.85472,1.83939 -0.63034,0.37836 -1.2756,0.73133 -1.91004,1.10277 -1.67704,0.98183 -3.34198,1.98367 -5.08695,2.84381 -0.32289,0.14811 -0.64324,0.30189 -0.96867,0.44434 -0.15684,0.0686 -0.3122,0.23267 -0.47768,0.18876 -0.12706,-0.0337 -0.0873,-0.25175 -0.16346,-0.35889 -0.0611,-0.086 -0.21239,-0.10527 -0.23912,-0.20732 -0.0645,-0.24611 1.14745,1.03802 0.7243,0.24068 1.99722,0.51066 3.96729,1.12726 5.83265,2.01787 0.85753,0.41772 1.7087,0.83732 2.52059,1.34025 0.15872,0.0983 0.31302,0.20374 0.46616,0.31056 0.0747,0.0521 0.21817,0.0749 0.21704,0.16598 -0.002,0.18956 -0.15038,0.34805 -0.22556,0.52207 -0.0502,0.005 -0.10249,0.0315 -0.1507,0.0163 -0.24849,-0.078 -0.70246,-0.39046 -0.87436,-0.51508 -0.81692,-0.59221 -1.54842,-1.2908 -2.28595,-1.97601 -2.07896,-2.06003 -4.08771,-4.19793 -5.82809,-6.55721 -0.64956,-0.90574 -1.2957,-1.80728 -1.85904,-2.77038 -0.20913,-0.35753 -0.45734,-0.81092 -0.61944,-1.20177 -0.0503,-0.12126 -0.0836,-0.2489 -0.12533,-0.37335 0,0 1.11134,-0.52093 1.11134,-0.52093 z"
       inkscape:connector-curvature="0" />
    <path
       style="fill:#32aaec;fill-opacity:1;stroke:none;stroke-width:1.36500001;stroke-miterlimit:4;stroke-dasharray:none;stroke-opacity:1"
       id="path882"
       d="m 93.888345,156.16734 c -0.86369,0.11521 -1.535087,0.649 -2.172867,1.20117 -0.962668,0.93125 -1.730674,2.0374 -2.419215,3.18004 -0.171294,0.32557 -0.375518,0.65282 -0.439235,1.02225 -0.0044,0.0252 -0.0019,0.10104 0.0059,0.0766 0.01992,-0.0634 -0.02437,-0.17241 -0.03905,-0.22302 0.856581,-0.28705 1.715378,-0.58082 2.580412,-0.84637 0.710965,-0.16075 1.818193,-0.55603 2.528353,-0.22814 0.17071,0.0788 0.308939,0.21443 0.463408,0.32164 0.09918,0.18415 0.235034,0.35284 0.297542,0.55244 0.350253,1.1184 -0.499547,2.4977 -1.048866,3.40373 -0.626142,0.88866 -1.309516,1.75901 -2.125266,2.48451 -0.418537,0.37224 -0.606541,0.47291 -1.062448,0.77158 -0.444613,0.21126 -1.039249,0.58584 -1.562184,0.38183 -0.115004,-0.0449 -0.273273,-0.20949 -0.366258,-0.2988 -0.08595,-0.16967 -0.07407,-0.3392 0.01791,-0.49997 0.06304,-0.10964 0.141126,-0.10044 0.266401,-0.12555 0,0 -0.05472,0.37192 -0.05472,0.37192 v 0 c 0.0444,-0.0216 0.09231,-0.0393 0.129593,-0.0716 -0.0059,0.0243 -0.0024,0.084 -0.03505,0.0629 -0.10872,-0.0302 -0.0472,-0.14202 -0.0016,-0.2038 0.19826,-0.26879 0.4597,-0.48561 0.667141,-0.74649 0.922052,-1.00083 1.858428,-1.99379 2.668641,-3.08974 0.325045,-0.44645 0.475694,-0.63499 0.760608,-1.09296 0.08827,-0.14189 0.17168,-0.28691 0.250367,-0.43434 0.05345,-0.10013 0.09724,-0.20513 0.14573,-0.30776 0.0264,-0.0559 0.03925,-0.12035 0.07891,-0.16772 0.02175,-0.026 0.06266,-0.0258 0.09399,-0.0388 0.06313,-0.0472 0.140709,-0.0753 -0.04684,-0.10496 -0.568362,-0.0899 -1.135473,0.24464 -1.671484,0.35991 -0.571318,0.17077 -1.140939,0.35751 -1.719866,0.50137 -0.298048,0.0741 -0.768781,0.17984 -1.082738,0.18422 -0.176615,0.002 -0.351848,-0.0316 -0.52777,-0.0474 -0.166875,-0.094 -0.36073,-0.15111 -0.500623,-0.28191 -0.645846,-0.60383 -0.171683,-1.71994 0.104227,-2.36567 0.69964,-1.3581 1.57362,-2.61986 2.750733,-3.61199 0.198043,-0.14975 0.387646,-0.31136 0.594127,-0.44925 0.669245,-0.4469 1.481664,-0.7925 2.304071,-0.71734 0.14016,0.0128 0.274796,0.061 0.412194,0.0915 0,0 -0.244157,0.98602 -0.244157,0.98602 z"
       inkscape:connector-curvature="0" />
    <path
       style="fill:#32aaec;fill-opacity:1;stroke:none;stroke-width:1.36500001;stroke-miterlimit:4;stroke-dasharray:none;stroke-opacity:1"
       id="path884"
       d="m 95.462528,160.39519 c 0.02138,0.33211 0.03347,0.77083 0.358841,0.96464 0.05792,0.0345 0.124487,0.0518 0.186727,0.0778 0.697701,0.15439 1.183762,-0.15744 1.684234,-0.60603 0.625925,-0.67009 0.835531,-1.29174 0.939425,-2.18146 0.02962,-0.3398 -0.0056,-0.67811 -0.04023,-1.01558 -0.0098,-0.0951 -0.03185,-0.0964 0.02037,-0.0702 0.343252,-0.0811 0.682483,-0.18168 1.029751,-0.24338 0.06212,-0.011 0.217773,0.25044 0.244155,0.28721 0.343589,0.4788 0.697949,0.94295 1.066439,1.40312 1.40909,1.66187 2.93537,3.21946 4.46412,4.77029 0.71848,0.73082 1.45725,1.4452 2.11729,2.23095 0.32734,0.38968 0.70047,0.86686 0.93926,1.32305 0.11036,0.21085 0.18317,0.43931 0.27476,0.65896 0.0304,0.23416 0.10461,0.46674 0.0912,0.70248 -0.0681,1.19356 -1.07677,1.96519 -2.07057,2.43341 -0.31326,0.1476 -0.64515,0.2519 -0.96772,0.37785 -1.80942,0.53846 -3.72307,0.77673 -5.60806,0.59181 -0.326782,-0.0321 -0.649743,-0.0953 -0.974612,-0.14302 -1.046819,-0.25358 -2.201421,-0.68227 -2.662663,-1.76087 -0.282118,-0.65972 -0.167836,-0.92199 -0.09798,-1.60305 0.0928,-0.25464 0.164285,-0.51811 0.278413,-0.76394 0.591735,-1.2746 1.6247,-2.24109 2.699324,-3.10292 0.742438,-0.49155 1.404938,-1.08605 2.176198,-1.53506 0.0346,-0.0184 0.0688,-0.0374 0.10373,-0.0553 0.0493,-0.0252 0.13419,-0.0612 0.13583,-0.0589 0.24219,0.32641 0.31973,0.26366 0.18176,0.35101 -0.004,0.001 -0.008,0.003 -0.0127,0.004 -0.0869,-0.0957 -0.18458,-0.18269 -0.26072,-0.28719 -0.0126,-0.0173 0.0385,-0.0514 0.0533,-0.036 0.0888,0.093 0.17545,0.18815 0.26318,0.28223 -0.12497,0.12848 -0.44001,-0.20448 -0.26018,-0.293 0,0 0.2966,0.20684 0.2966,0.20684 v 0 c -0.0209,0.19933 -0.44216,0.0187 -0.36483,-0.1429 0.11775,0.051 0.23567,0.10168 0.35324,0.15311 0.0185,0.008 0.006,0.0654 -0.0134,0.0591 -0.12186,-0.0401 -0.23365,-0.10596 -0.35048,-0.15895 -0.002,-0.002 -0.003,-0.004 -0.005,-0.006 0.0308,-0.13343 0.45544,0.0252 0.23786,0.26099 -0.0249,0.0269 -0.05,0.0536 -0.075,0.0804 -0.59008,0.62037 -1.24095,1.18805 -1.74246,1.88533 -0.809922,1.04699 -1.698136,2.09463 -2.15078,3.35468 -0.03087,0.15803 -0.0966,0.35975 -0.04965,0.52876 0.16356,0.5888 1.03179,0.61646 1.491271,0.71948 0.27424,0.0225 0.547862,0.0546 0.822719,0.0675 1.66512,0.0782 3.34135,-0.0782 4.98528,-0.33026 0.63443,-0.14486 1.24502,-0.27964 1.81817,-0.6005 0.0862,-0.0482 0.33064,-0.19662 0.36287,-0.33029 0.0222,-0.0922 -0.009,-0.18952 -0.0134,-0.28428 -0.059,-0.13337 -0.1023,-0.2749 -0.1771,-0.4001 -0.21761,-0.36427 -0.58248,-0.76256 -0.86585,-1.06196 -0.69194,-0.7311 -1.45064,-1.39369 -2.17561,-2.09085 -1.63259,-1.58288 -3.21076,-3.2367 -4.462217,-5.14616 -0.400505,-0.65012 -0.855266,-1.32293 -1.09755,-2.05523 -0.03745,-0.1132 -0.178364,-0.26842 -0.08835,-0.34661 0.276569,-0.24025 0.668965,-0.29887 1.003448,-0.4483 0.378005,0.52709 0.400458,1.19664 0.348763,1.82315 -0.02742,0.16389 -0.04425,0.32991 -0.08227,0.49168 -0.216509,0.92118 -0.694137,1.76349 -1.369452,2.42303 -0.1525,0.11935 -0.295587,0.25182 -0.457501,0.35805 -0.77796,0.51041 -1.689812,0.63056 -2.548258,0.26027 -0.136263,-0.0939 -0.285948,-0.17075 -0.408786,-0.28161 -0.547545,-0.49415 -0.699098,-1.25837 -0.491792,-1.94455 0,0 0.916905,0.25262 0.916905,0.25262 z"
       inkscape:connector-curvature="0" />
    <path
       style="fill:#32aaec;fill-opacity:1;stroke:none;stroke-width:1.36500001;stroke-miterlimit:4;stroke-dasharray:none;stroke-opacity:1"
       id="path886"
       d="m 103.14204,157.31285 c -0.1229,-0.57138 -0.0884,-1.16218 -0.23725,-1.72923 -0.0142,-0.0236 -0.0177,-0.0589 -0.0425,-0.0709 -0.0169,-0.008 -0.001,0.0404 0.0103,0.0553 0.0321,0.0422 0.0709,0.0805 0.1151,0.10974 0.17389,0.11507 0.21269,0.0168 0.0134,0.24731 -0.34533,0.42204 -0.6663,0.87738 -0.87491,1.38363 -0.005,0.0298 -0.0152,0.0593 -0.0146,0.0895 2.5e-4,0.013 0.0161,-0.0227 0.0156,-0.0357 -0.002,-0.0432 -0.0104,-0.0861 -0.0213,-0.12793 -0.0102,-0.0394 -0.0557,-0.0766 -0.0416,-0.11476 0.0146,-0.0399 0.31322,-0.0927 0.36092,-0.10329 1.03544,-0.29143 2.04375,-0.66983 3.06856,-0.9956 0.74679,-0.20638 1.87216,-0.53742 2.52277,0.0973 0.15296,0.1492 0.23615,0.35617 0.35422,0.53426 0.0317,0.20708 0.092,0.41176 0.0952,0.62123 0.0172,1.12919 -0.72319,2.24314 -1.3447,3.12291 -0.57177,0.67419 -1.27034,1.53856 -2.16866,1.78022 -0.11879,0.032 -0.2439,0.0323 -0.36586,0.0485 -0.3322,-0.0487 -0.68348,-0.0774 -0.77713,-0.44863 -0.0132,-0.0822 -0.003,-0.16094 0.0357,-0.23414 0.0911,-0.0864 0.0671,-0.0884 0.13117,-0.0893 0,0 0.10092,0.31637 0.10092,0.31637 v 0 c -5.3e-4,0.003 0.025,-0.004 -10e-4,0.008 0.0201,-0.0236 0.0403,-0.0472 0.0604,-0.0708 0.004,-0.008 0.0182,-0.056 0.0202,-0.0214 0.0261,0.0738 0.0706,0.11735 0.0693,-0.0597 0.32802,-0.84663 0.9469,-1.53048 1.47298,-2.25749 0.34368,-0.46267 0.68291,-0.92534 0.96211,-1.43114 0.11917,-0.21589 0.19493,-0.45549 0.32804,-0.66307 0.023,-0.0358 0.0633,-0.0569 0.0949,-0.0854 0.0487,0.0115 0.096,0.0323 0.14594,0.0345 0.0201,7.9e-4 0.0711,-0.0145 0.0545,-0.0257 -0.22529,-0.15188 -1.09316,0.21244 -1.31409,0.26737 -1.11795,0.38282 -2.23937,0.80504 -3.42229,0.93085 -0.33836,0.006 -0.65512,0.047 -0.98134,-0.0855 -0.62845,-0.25538 -0.82108,-0.83094 -0.69784,-1.45277 0.25175,-0.76164 0.67757,-1.44332 1.28835,-1.97215 0.22336,-0.15441 0.42761,-0.32827 0.70482,-0.38481 0.62473,-0.12744 1.068,0.21792 1.2729,0.78159 0.15557,0.66267 0.20059,1.36074 0.0603,2.03074 0,0 -1.05305,0 -1.05305,0 z"
       inkscape:connector-curvature="0" />
    <path
       style="fill:#32aaec;fill-opacity:1;stroke:none;stroke-width:1.36500001;stroke-miterlimit:4;stroke-dasharray:none;stroke-opacity:1"
       id="path888"
       d="m 105.98046,145.28595 c 0.11798,0.092 0.24152,0.17737 0.35392,0.27615 0.34296,0.30141 0.61939,0.61123 0.9308,0.94729 0.60594,0.6539 1.20375,1.31536 1.80639,1.97229 1.33372,1.4791 2.71162,2.91698 4.05181,4.3901 0.19583,0.23498 0.76254,0.90046 0.94753,1.17519 0.11408,0.16941 0.18673,0.3645 0.30175,0.53329 0.0862,0.12649 0.2007,0.23119 0.29912,0.34844 0.16858,0.20083 0.21399,0.26273 0.36215,0.45414 0.0767,0.10457 0.15687,0.20773 0.21864,0.32217 0,0 -0.43763,0.38739 -0.43763,0.38739 v 0 c -0.10517,-0.051 -0.19321,-0.13731 -0.28995,-0.20245 -0.18928,-0.147 -0.24772,-0.19083 -0.44915,-0.35541 -0.11714,-0.0957 -0.22225,-0.2076 -0.34943,-0.28949 -0.1691,-0.10888 -0.3637,-0.1737 -0.53461,-0.27973 -0.34192,-0.2121 -0.92755,-0.68169 -1.23032,-0.91678 -1.52923,-1.35968 -2.95521,-2.82575 -4.21341,-4.44341 -0.88074,-1.12105 -1.73136,-2.26358 -2.57039,-3.41605 0,0 0.80278,-0.90313 0.80278,-0.90313 z"
       inkscape:connector-curvature="0" />
    <path
       style="fill:#32aaec;fill-opacity:1;stroke:none;stroke-width:1.36500001;stroke-miterlimit:4;stroke-dasharray:none;stroke-opacity:1"
       id="path890"
       d="m 106.47087,154.41434 c 0.0671,-0.16051 0.11901,-0.32823 0.20124,-0.48153 0.67613,-1.26037 1.85301,-2.20748 2.9455,-3.08658 1.26894,-0.96914 2.64036,-1.79766 4.13181,-2.37124 0.58308,-0.17057 1.42008,-0.46366 1.85159,0.16751 0.0759,0.11108 0.0897,0.25371 0.13457,0.38057 0.0549,0.60513 -0.0374,1.20882 0.0867,1.80733 0.26294,0.56702 0.91282,0.6692 1.4734,0.73306 0.94053,0.046 1.73591,-0.25181 2.50326,-0.77001 0.0832,-0.0579 0.63335,-0.57579 0.5305,-0.72284 -0.0549,-0.0785 -0.0359,0.0702 -0.027,0.2064 -0.0187,0.0261 -0.0279,0.063 -0.0561,0.0785 -0.16661,0.0917 -0.36483,0.10828 -0.54346,0.17348 -0.44983,0.1642 -0.83871,0.38048 -1.2376,0.64241 -0.57869,0.4915 -1.1918,1.1421 -1.28319,1.9377 -0.0124,0.10807 0.007,0.21746 0.01,0.3262 0.0338,0.0874 0.055,0.18077 0.10151,0.26208 0.31945,0.55803 1.0166,0.66942 1.59143,0.72531 0.93068,-0.0645 1.82296,-0.4373 2.54945,-1.0222 0.15228,-0.1226 0.28805,-0.26439 0.43207,-0.39658 0.7401,-0.78571 1.02641,-1.50597 1.19408,-2.54674 0.0579,-0.32144 0.0257,-0.64922 0.0568,-0.97239 0.006,-0.0582 -0.0285,-0.14762 0.0238,-0.17368 0.3836,-0.1911 0.80538,-0.29332 1.20807,-0.43999 0.52098,0.53486 0.96212,1.14155 1.44554,1.71032 0.40182,0.39634 0.82528,1.09763 1.37766,1.29468 -0.0276,-0.14048 -0.24564,0.0307 -0.30541,-0.0254 -0.0328,-0.0308 -0.006,-0.09 -0.003,-0.13483 0.0192,-0.25986 0.053,-0.51846 0.0747,-0.77812 0.0634,-1.18391 0.19693,-2.36026 0.47832,-3.51266 0.189,-0.63624 0.47528,-1.30192 1.18847,-1.49383 0.42634,-0.11471 0.66489,0.006 1.05329,0.11812 0.62876,0.27681 1.19658,0.67011 1.8447,0.90409 0.26774,0.0554 0.17674,-0.0572 0.21984,-0.26253 0.0712,-0.49396 0.0899,-0.98717 0.22737,-1.46855 0.0644,-0.11862 0.1064,-0.25244 0.19313,-0.35585 0.65873,-0.78535 1.66305,-0.44286 2.48722,-0.19273 0.19403,0.0748 1.10925,0.42142 1.26383,0.50867 0.23659,0.13354 0.44263,0.31513 0.66394,0.4727 0,0 -0.57408,1.38041 -0.57408,1.38041 v 0 c -0.26257,-0.0437 -0.53075,-0.0616 -0.78773,-0.13101 -0.13407,-0.0362 -1.05601,-0.42381 -1.22548,-0.49426 -0.13556,-0.0655 -0.27107,-0.13116 -0.40669,-0.19656 -0.17461,-0.0842 -0.32849,-0.14163 -0.30838,-0.18467 0.0514,-0.11009 0.28745,-0.13839 0.25317,-0.34092 -0.17421,0.5035 -0.10593,1.10247 -0.35172,1.59363 -0.0602,0.12574 -0.10725,0.25873 -0.18074,0.37723 -0.42714,0.68877 -1.15223,0.94987 -1.93335,0.82134 -0.35409,-0.0949 -0.43662,-0.10082 -0.77315,-0.25755 -0.40678,-0.18943 -0.77305,-0.45577 -1.16281,-0.67568 -0.0279,-0.0226 -0.0881,-0.0322 -0.0837,-0.0678 0.005,-0.0402 0.0705,-0.0411 0.1003,-0.0686 0.0461,-0.0426 0.0883,-0.0897 0.12557,-0.14015 0.004,-0.005 -0.0123,-0.0152 -0.0149,-0.01 -0.0273,0.0573 -0.0492,0.11749 -0.0657,0.17881 -0.0297,0.11046 -0.0484,0.22359 -0.0726,0.33538 -0.1894,1.13874 -0.27162,2.29293 -0.49724,3.42626 -0.19418,0.88816 -0.41686,2.00862 -1.51308,2.13621 -0.14467,0.0168 -0.28977,-0.0297 -0.43466,-0.0446 -0.12836,-0.0475 -0.2615,-0.0837 -0.38507,-0.14257 -0.7105,-0.33843 -1.22044,-0.98481 -1.7252,-1.56296 -0.27228,-0.35744 -0.53821,-0.71734 -0.78312,-1.09439 -0.0579,-0.0891 -0.31286,-0.41799 -0.28307,-0.55453 0.34756,-0.19179 0.69096,-0.39135 1.0427,-0.57537 0.0163,-0.009 0.0338,0.0842 0.0517,0.19133 0.0163,0.0979 0.0327,0.19587 0.0421,0.29463 0.0362,0.37923 0.0207,0.43377 0.008,0.83223 -0.0226,0.17251 -0.0346,0.34677 -0.068,0.51753 -0.22218,1.13747 -0.79697,2.16387 -1.57647,3.01191 -0.19536,0.17962 -0.37968,0.37204 -0.58608,0.53885 -0.83295,0.67316 -1.85934,1.15922 -2.92973,1.28708 -0.26309,0.0314 -0.52966,0.0167 -0.79449,0.025 -0.63874,-0.0999 -0.85849,-0.0844 -1.44684,-0.37474 -0.66738,-0.32933 -1.22065,-0.87209 -1.48225,-1.57883 -0.0841,-0.22709 -0.10312,-0.47319 -0.15468,-0.70978 0.0112,-0.23639 -0.005,-0.47562 0.0337,-0.70916 0.1981,-1.21012 1.05716,-2.18166 2.00166,-2.89264 0.20296,-0.11994 0.39791,-0.25458 0.60886,-0.35981 0.70413,-0.35127 1.64109,-0.6104 2.42434,-0.37357 0.18822,0.0569 0.35268,0.17402 0.52902,0.26102 0.11805,0.15752 0.27378,0.29287 0.35413,0.47257 0.35869,0.80217 -0.37033,1.68238 -0.91953,2.1674 -0.15898,0.11283 -0.31022,0.23747 -0.47695,0.3385 -0.92487,0.56045 -2.00585,0.77415 -3.07522,0.66285 -0.20529,-0.0414 -0.41473,-0.0659 -0.61586,-0.12432 -0.73339,-0.21285 -1.39843,-0.66423 -1.71625,-1.37879 -0.0642,-0.1443 -0.0908,-0.30252 -0.13623,-0.45377 -0.0655,-0.62017 -0.0569,-1.25744 0.1885,-1.84266 0.16839,0.002 -0.0229,-0.008 0.23216,0.0514 0.006,0.002 0.0235,-0.012 0.017,-0.0104 -0.0427,0.0106 -0.0862,0.0197 -0.12642,0.0376 -0.22884,0.10174 -0.3517,0.20143 -0.57013,0.34773 -1.21747,0.85141 -2.41469,1.73346 -3.5794,2.65578 -1.02933,0.842 -2.07244,1.68123 -2.95249,2.68406 0,0 -1.33113,-0.51766 -1.33113,-0.51766 z"
       inkscape:connector-curvature="0" />
    <path
       style="fill:#6c6c6c;fill-opacity:1;stroke:none;stroke-width:1.36500001;stroke-miterlimit:4;stroke-dasharray:none;stroke-opacity:1"
       id="path892"
       d="m 163.96296,152.58553 c 0.77624,-0.44202 1.55001,-0.34826 2.36691,-0.095 1.02842,0.37924 1.93765,0.99461 2.80681,1.64997 1.24938,0.94024 2.32926,2.07306 3.39037,3.21463 1.37839,1.47294 2.50878,3.13729 3.58134,4.83803 1.28905,2.0566 2.34403,4.24398 3.38548,6.43239 1.18939,2.48989 2.17102,5.06997 3.05679,7.681 0.83238,2.44038 1.39165,4.95524 1.84991,7.48844 0.37024,2.0659 0.57831,4.15398 0.68398,6.24859 0.0588,1.33173 0.0441,2.66538 -0.0674,3.99363 -0.0534,0.57674 -0.13376,1.15062 -0.25654,1.71668 -0.0364,0.47542 -1.31835,0.68253 -1.25251,0.11745 -0.0431,-0.38664 1.02653,-0.41211 0.92242,-0.0483 -0.26701,0.2109 -1.02547,0.34137 -0.90601,-0.009 0,0 0.87762,-0.12926 0.87762,-0.12926 v 0 c 0.21922,0.30198 -0.53951,0.31298 -0.8649,0.26926 -0.19151,-0.29635 0.86459,-0.37191 0.89129,-0.10475 0.0707,0.37839 0.0305,0.0625 -0.97635,0.0907 -0.0267,7.9e-4 -0.0567,0.008 -0.0798,-0.005 -0.0441,-0.0251 -0.0864,-0.14745 -0.0966,-0.18109 -0.0143,-0.0473 -0.0224,-0.0962 -0.0336,-0.14433 -0.0106,-0.55545 0.0203,-1.11075 0.0261,-1.66617 0.0263,-1.25599 -0.0311,-2.50974 -0.15056,-3.76049 -0.18434,-2.00844 -0.44586,-4.00876 -0.81775,-5.99175 -0.47488,-2.42057 -1.03345,-4.82806 -1.85131,-7.15911 -0.88904,-2.53386 -1.88051,-5.02946 -2.95556,-7.49037 -0.94215,-2.14454 -1.89538,-4.28956 -3.05634,-6.32702 -0.96417,-1.63296 -1.9879,-3.23436 -3.22255,-4.67979 -0.96168,-1.10961 -1.9473,-2.20118 -3.08632,-3.13457 -0.70707,-0.60468 -1.42388,-1.21237 -2.25819,-1.63718 -0.54711,-0.24495 -0.86833,-0.27482 -1.45873,-0.13565 0,0 -0.44794,-1.04147 -0.44794,-1.04147 z"
       inkscape:connector-curvature="0" />
    <path
       style="fill:#6c6c6c;fill-opacity:1;stroke:none;stroke-width:1.36500001;stroke-miterlimit:4;stroke-dasharray:none;stroke-opacity:1"
       id="path898"
       d="m 173.51141,190.6256 c 1.18102,0.0912 2.23338,0.68085 3.22554,1.28238 1.33633,0.86842 2.64998,1.77082 3.98129,2.64692 0.8136,0.4803 1.54804,1.12867 2.43379,1.47936 0.0301,0.004 0.0599,0.0148 0.0903,0.0133 0.0813,-0.004 -0.0574,-0.0248 -0.0959,-0.02 -0.11172,0.0138 -0.13588,0.0629 -0.13774,0.0368 -0.002,-0.0245 0.0298,-0.039 0.0447,-0.0585 0.34809,-0.34374 0.69621,-0.68084 1.01241,-1.05518 1.11138,-1.36984 2.25643,-2.71185 3.42756,-4.03084 0.84739,-1.00516 1.85913,-1.84034 2.86646,-2.67552 0.71257,-0.59079 1.42725,-1.15738 2.17886,-1.69692 0.3897,-0.25709 0.76971,-0.53975 1.19438,-0.73877 0.43231,-0.21879 0.0779,-0.0608 0.80871,1.01241 0.0117,0.0171 -0.0416,0.0424 -0.0559,0.0274 -0.89669,-0.94146 -1.23884,-0.72695 -0.83576,-0.96201 0.42133,-0.16451 1.29101,0.75824 0.84938,0.94832 0,0 -0.92226,-0.85787 -0.92226,-0.85787 v 0 c 0.15606,-0.45389 1.11858,0.34338 1.00487,0.78091 -0.006,0.0117 -0.007,0.0434 -0.0173,0.0352 -0.33264,-0.26728 -0.64957,-0.55354 -0.9735,-0.8313 -0.0107,-0.009 5.3e-4,-0.0509 0.0105,-0.0409 0.91013,0.91615 0.46919,1.06315 0.89284,0.91379 -0.17018,0.33111 -0.6618,0.67176 -0.86091,0.97404 -0.62039,0.65114 -1.26392,1.27635 -1.89356,1.91816 -0.87952,0.89651 -1.71267,1.83853 -2.62004,2.70794 -1.2561,1.28549 -2.48761,2.60491 -3.89249,3.73231 -0.34959,0.27601 -0.72044,0.53225 -1.04237,0.83975 -0.44936,0.47743 -0.92514,0.61483 -1.56481,0.43258 -0.99637,-0.3665 -1.8978,-0.93923 -2.80741,-1.47827 -1.35502,-0.8535 -2.6757,-1.75607 -3.94746,-2.73041 -0.81468,-0.5871 -1.64419,-1.15426 -2.54045,-1.61173 0,0 0.18624,-0.99324 0.18624,-0.99324 z"
       inkscape:connector-curvature="0" />
    <path
       style="fill:#32aa34;fill-opacity:1;stroke:none;stroke-width:1.36500001;stroke-miterlimit:4;stroke-dasharray:none;stroke-opacity:1"
       id="path900"
       d="m 167.95626,205.0263 c 0.21716,0.5475 0.35756,1.12076 0.54789,1.67791 0.13041,0.55721 0.006,1.14785 -0.77453,0.96633 -0.10985,-0.0256 -0.17093,-0.1472 -0.2564,-0.2208 -0.41384,-0.66757 -0.64834,-1.43025 -0.95334,-2.15139 -0.425,-1.04433 -0.96241,-2.03537 -1.58766,-2.97215 -0.31426,-0.41915 -0.74392,-0.95371 -1.34085,-0.81486 -0.0928,0.0216 -0.17878,0.0662 -0.26816,0.0993 -0.0933,0.059 -0.19527,0.10602 -0.27981,0.17694 -0.69477,0.58284 -0.73198,1.6496 -0.7807,2.47374 0.041,2.01841 0.65212,3.96408 1.24931,5.87467 0.63672,1.92063 1.39904,3.79568 2.06393,5.70627 0.278,0.98224 0.73138,1.98635 0.69405,3.03005 -0.005,0.14031 -0.0338,0.27877 -0.0507,0.41815 -0.13541,0.38447 -0.35731,0.79344 -0.82921,0.81967 -0.2578,0.0143 -0.48608,-0.17954 -0.69862,-0.28036 -0.0922,-0.0438 -0.19038,-0.0737 -0.28557,-0.11048 -0.27701,-0.13064 -0.54678,-0.28421 -0.77871,-0.48587 -0.0203,-0.0177 -0.0385,-0.0374 -0.0556,-0.0581 0,0 0.11215,-0.12742 0.11215,-0.12742 v 0 c 0.0167,0.006 0.0342,0.0117 0.05,0.0203 0.26362,0.11597 0.52894,0.22806 0.79576,0.3365 0.0838,0.0335 0.53128,0.25562 0.55356,-0.0105 0.003,-0.0308 -0.25143,0.0525 -0.11954,-0.12948 -0.16736,-0.98434 -0.59092,-1.90401 -0.94257,-2.8312 -0.7881,-1.90391 -1.60567,-3.79927 -2.23668,-5.76309 -0.65492,-2.13787 -1.24688,-4.33709 -1.04234,-6.5956 0.0525,-0.30423 0.0838,-0.61292 0.15751,-0.91271 0.23349,-0.94921 0.72244,-1.90227 1.56122,-2.45164 0.16754,-0.10974 0.35916,-0.17732 0.53875,-0.26597 0.5077,-0.11933 0.64699,-0.20423 1.17404,-0.12121 0.78716,0.124 1.37067,0.66381 1.83983,1.26851 0.69743,1.0114 1.24848,2.10697 1.64623,3.27139 0.22297,0.64834 0.44521,1.30317 0.60618,1.96925 -0.20576,-0.0713 -0.27616,-0.11716 -0.56446,0.0447 -0.22242,0.12491 -0.0936,0.55151 -0.19728,0.11982 -0.145,-0.5883 -0.31737,-1.17457 -0.37894,-1.779 0,0 0.83128,-0.19183 0.83128,-0.19183 z"
       inkscape:connector-curvature="0" />
    <path
       style="fill:#32aa34;fill-opacity:1;stroke:none;stroke-width:1.36500001;stroke-miterlimit:4;stroke-dasharray:none;stroke-opacity:1"
       id="path902"
       d="m 158.69999,215.93634 c 0.95233,-1.03667 2.18793,-1.76447 3.4266,-2.40598 0.74875,-0.37717 1.53883,-0.66911 2.35274,-0.87056 0.25226,-0.0624 0.51062,-0.0978 0.76357,-0.15737 2.48297,-0.58471 -0.92755,0.16993 1.12726,-0.27949 0.36263,-0.0562 0.73082,-0.14618 1.10086,-0.12795 0.0116,0.001 0.0232,0.002 0.0348,0.003 0,0 0.0249,0.37725 0.0249,0.37725 v 0 c -0.002,0.002 -0.003,0.004 -0.004,0.006 -0.31402,0.14385 -0.64668,0.24554 -0.96355,0.38242 -0.34704,0.13497 -0.70502,0.24444 -1.04155,0.40381 -0.93444,0.4425 -1.76646,1.08305 -2.6876,1.55054 -1.11633,0.65024 -2.23982,1.28806 -3.34931,1.95001 0,0 -0.78423,-0.83205 -0.78423,-0.83205 z"
       inkscape:connector-curvature="0" />
    <path
       style="fill:#32aa34;fill-opacity:1;stroke:none;stroke-width:1.36500001;stroke-miterlimit:4;stroke-dasharray:none;stroke-opacity:1"
       id="path904"
       d="m 168.92735,213.96881 c 0.32984,0.47659 0.69303,0.93051 1.25403,1.12613 0.46506,0.0641 0.77568,-0.26885 1.01853,-0.61932 0.1049,-0.21178 0.39911,-0.77518 0.0946,-0.95052 -0.48005,0.005 -0.89528,0.26 -1.27924,0.51977 -0.50307,0.42682 -1.05137,0.89352 -1.25871,1.54588 -0.0319,0.10025 -0.0414,0.20627 -0.0621,0.30941 -0.003,0.71701 0.47947,0.9128 1.07646,1.12855 1.13845,0.23152 2.30533,-0.0244 3.44283,-0.15148 0.39482,-0.0493 0.84315,-0.085 1.22658,-0.20866 0.16349,-0.0527 0.31399,-0.13947 0.47008,-0.21119 0.2864,-0.13158 0.56878,-0.2709 0.84964,-0.41378 0.337,-0.16593 0.25756,-0.27573 0.34162,0.142 -0.11897,-0.057 -0.0315,-0.4478 0.1272,-0.34652 0,0 -0.0292,0.34084 -0.0292,0.34084 v 0 c -0.17645,0.0697 -0.24724,-0.34595 -0.0747,-0.36748 0.0642,0.0983 0.13851,0.19071 0.19269,0.29489 0.0105,0.0202 -0.26846,0.31464 -0.29404,0.327 -0.25813,0.22052 -0.52341,0.4263 -0.81245,0.60619 -0.15804,0.0984 -0.32528,0.18147 -0.48298,0.28038 -1.11559,0.69963 -0.008,0.0776 -1.20673,0.72315 -0.23193,0.0948 -0.45794,0.20563 -0.6958,0.2844 -1.1844,0.39224 -2.45699,0.44896 -3.6448,0.0517 -0.48336,-0.23337 -0.69914,-0.28932 -1.0906,-0.66884 -0.59939,-0.58109 -0.797,-1.34826 -0.66522,-2.15574 0.0556,-0.17775 0.0951,-0.36132 0.16665,-0.53323 0.35627,-0.85542 1.06308,-1.51343 1.82816,-2.0026 0.15957,-0.0826 0.31374,-0.17667 0.47872,-0.24789 0.54596,-0.23568 1.24731,-0.37981 1.81275,-0.11184 0.12882,0.0611 0.23359,0.16347 0.3504,0.24521 0.0769,0.10938 0.16987,0.20907 0.23073,0.32813 0.31376,0.61378 0.0885,1.3209 -0.2256,1.8784 -0.0872,0.11495 -0.16431,0.23826 -0.26152,0.34485 -0.52667,0.5775 -1.24816,0.81943 -2.01091,0.64635 -0.13534,-0.0544 -0.27644,-0.0963 -0.40601,-0.16332 -0.62556,-0.32355 -1.09091,-0.8998 -1.35578,-1.5414 0,0 0.89471,-0.42947 0.89471,-0.42947 z"
       inkscape:connector-curvature="0" />
    <path
       style="fill:#32aa34;fill-opacity:1;stroke:none;stroke-width:1.36500001;stroke-miterlimit:4;stroke-dasharray:none;stroke-opacity:1"
       id="path906"
       d="m 176.52183,215.09564 c 0.4447,0.0687 0.95366,0.34043 1.39709,0.15457 0.15813,-0.16855 0.0772,-0.41467 -0.003,-0.60243 -0.16251,-0.22536 -0.35564,-0.13137 -0.54519,0.003 -0.47796,0.42496 -0.61533,1.0629 -0.70726,1.66855 -0.0342,0.57088 0.0792,1.1549 0.5813,1.49873 0.0955,0.0654 0.20402,0.10956 0.30603,0.16434 0.64847,0.2712 1.34334,0.38185 2.01862,0.56149 0.88681,0.2359 0.30058,0.12926 1.18811,0.24775 0.56196,-0.0466 1.12361,-0.0978 1.68406,-0.16019 0.19511,-0.0738 0.0843,0.21576 0.0128,0.13551 0.0769,-0.13669 0.10059,-0.23066 0.17812,-0.13531 0,0 -0.0493,0.17308 -0.0493,0.17308 v 0 c -0.12294,0.0309 -0.0871,-0.0403 -0.0876,-0.21503 0.16219,-0.0331 0.17729,0.27322 0.0115,0.27111 -0.53607,0.24761 -1.12059,0.37283 -1.69914,0.47393 -0.18671,0.0573 -1.14093,0.35469 -1.30968,0.38597 -0.70282,0.13026 -1.47869,0.0632 -2.15351,-0.17316 -0.22308,-0.0781 -0.42773,-0.20131 -0.6416,-0.30197 -0.4753,-0.35412 -0.64559,-0.41453 -0.97317,-0.91282 -0.46037,-0.70027 -0.51612,-1.5185 -0.34985,-2.31844 0.29966,-0.99294 0.64891,-1.74111 1.57579,-2.28407 0.12457,-0.0454 0.24451,-0.10645 0.37372,-0.13624 0.64065,-0.14768 1.20732,0.15726 1.50664,0.72216 0.0348,0.10372 0.0818,0.20413 0.10449,0.31116 0.0994,0.46918 -0.0215,0.9908 -0.37548,1.32853 -0.0929,0.0886 -0.21057,0.14679 -0.31586,0.22019 -0.12015,0.0406 -0.23615,0.0967 -0.36046,0.12189 -0.59302,0.12013 -1.23025,-0.0874 -1.74919,-0.35714 0,0 0.38165,-0.84506 0.38165,-0.84506 z"
       inkscape:connector-curvature="0" />
    <path
       style="fill:#32aa34;fill-opacity:1;stroke:none;stroke-width:1.36500001;stroke-miterlimit:4;stroke-dasharray:none;stroke-opacity:1"
       id="path908"
       d="m 188.05643,214.47338 c -0.76961,0.054 -1.5245,0.2694 -2.20253,0.64037 -0.17324,0.0948 -0.33572,0.20805 -0.50358,0.31207 -0.92475,0.67599 -1.62764,1.60181 -2.05085,2.66662 -0.0799,0.20099 -0.13497,0.41097 -0.20246,0.61646 -0.10381,0.44776 -0.31853,1.60284 0.1767,1.92921 0.0315,0.0207 0.0747,0.01 0.11207,0.0147 0.63041,-0.52472 0.7901,-1.43482 0.95673,-2.18701 0.35943,-2.35168 -0.007,-4.7185 -0.45699,-7.02918 -0.42616,-1.94289 -0.98763,-3.85459 -1.64459,-5.73139 0.75401,0.43124 -0.39329,-0.5325 -0.21267,-0.50511 0.14793,0.0224 0.26419,0.16795 0.41368,0.17419 0.14976,0.006 0.2852,-0.18585 0.42761,-0.13911 0.10431,0.0342 0.0733,0.20719 0.10237,0.31305 0.0584,0.2124 0.10659,0.42746 0.15989,0.64119 0.58367,2.3021 1.4526,4.5111 2.42806,6.67134 0.49059,1.03804 0.88804,2.13037 1.44904,3.13511 0.14057,0.25177 0.31233,0.48481 0.46927,0.7267 0.2733,0.42122 0.3791,0.5806 0.63877,0.97479 0.077,0.23085 0.39578,0.46985 0.4473,0.69011 -0.10976,0.0576 -0.2154,0.12386 -0.32928,0.1728 -0.0104,0.004 -0.004,-0.0314 0.008,-0.033 0.44032,-0.0619 0.42665,-0.19176 0.40682,-0.003 -0.44444,0.0614 -0.42801,0.17586 -0.41248,-0.0108 0,0 0.37904,-0.10754 0.37904,-0.10754 v 0 c 0.11116,0.15144 0.065,0.0449 -0.34439,0.22968 -0.008,-0.008 -0.0427,-0.0396 -0.0349,-0.0453 0.52438,-0.38102 0.48535,-0.18906 0.12074,0.13759 -0.29552,-0.13671 -0.52504,-0.38454 -0.76951,-0.59136 -0.35519,-0.34554 -0.49517,-0.47092 -0.84587,-0.8669 -0.19945,-0.2252 -0.38392,-0.46338 -0.58301,-0.68891 -0.24672,-0.27948 -0.51476,-0.54008 -0.75417,-0.82584 -0.75489,-0.90101 -0.84268,-1.10793 -1.49061,-2.11219 -0.51934,-1.04322 -0.75115,-1.44629 -1.16951,-2.53958 -0.58032,-1.51654 -0.98367,-3.10943 -1.16314,-4.72325 -0.008,-0.29116 -0.0798,-1.21755 0.0827,-1.5326 0.64215,-1.24473 1.46132,-0.56291 1.96373,0.22989 0.11438,0.20801 0.23767,0.41137 0.34313,0.62404 0.84408,1.70208 1.31595,3.56644 1.69368,5.41812 0.0758,0.46505 0.16386,0.92828 0.22736,1.39517 0.28689,2.10946 0.36105,4.2712 -0.16642,6.34981 -0.10403,0.30246 -0.18817,0.6125 -0.31208,0.90738 -0.34327,0.81685 -0.96741,1.82153 -1.94839,1.93478 -0.19442,0.0224 -0.38914,-0.0422 -0.58371,-0.0634 -0.1602,-0.0957 -0.34039,-0.16387 -0.4806,-0.28698 -0.62573,-0.54937 -0.73333,-1.53404 -0.65643,-2.30747 0.025,-0.25125 0.0889,-0.4971 0.13328,-0.74566 0.0862,-0.25651 0.15518,-0.5195 0.25868,-0.76954 0.53416,-1.29047 1.47978,-2.34424 2.64661,-3.09586 0.21195,-0.11405 0.41746,-0.24097 0.63584,-0.34215 0.83624,-0.38741 1.77922,-0.58524 2.69783,-0.48186 0,0 -0.0603,0.85954 -0.0603,0.85954 z"
       inkscape:connector-curvature="0" />
    <path
       style="fill:#32aa34;fill-opacity:1;stroke:none;stroke-width:1.36500001;stroke-miterlimit:4;stroke-dasharray:none;stroke-opacity:1"
       id="path910"
       d="m 186.91053,203.94467 c 0.45502,1.15535 1.04534,2.25098 1.61516,3.35235 0.89101,1.65843 1.68034,3.36548 2.4257,5.09319 0.36623,0.96315 0.85987,1.92378 0.94972,2.96724 0.0111,0.12878 0.004,0.25849 0.006,0.38773 -0.0948,0.59631 -0.33398,0.99334 -1.09135,0.88123 -0.42373,-0.0627 -0.66754,-0.77813 -0.78555,-1.10391 -0.19959,-0.86453 -0.15878,-1.7904 0.18453,-2.61681 0.0757,-0.18233 0.17913,-0.3519 0.2687,-0.52785 0.62861,-0.94082 1.50072,-1.44909 2.63299,-1.5355 0.21866,-0.0167 0.43859,8e-4 0.65788,0.001 1.15008,0.1072 2.22518,0.56264 3.07388,1.35435 0.16331,0.15235 0.30466,0.32665 0.45699,0.48998 0.55943,0.74882 0.87104,1.62558 0.6867,2.56751 -0.12623,0.64501 -0.29414,0.83414 -0.61359,1.39877 -0.82599,1.12234 -1.99494,1.89343 -3.3327,2.27248 -0.26044,0.0738 -0.52837,0.118 -0.79255,0.177 -0.89111,0.10714 -1.87139,0.20397 -2.72463,-0.16417 -0.16361,-0.0706 -0.29933,-0.19401 -0.45567,-0.27951 -0.1136,-0.0621 -0.23518,-0.10839 -0.35276,-0.16259 -0.27455,-0.15259 -0.54889,-0.32782 -0.72528,-0.5939 -0.0111,-0.0223 -0.0367,-0.0421 -0.0333,-0.0668 0.0172,-0.1268 0.0547,-0.25034 0.0928,-0.37248 0.007,-0.0234 0.0496,-0.055 0.0646,-0.0355 0.37421,0.4852 0.50108,0.40346 0.29572,0.51303 -0.004,0.001 -0.009,0.002 -0.0132,0.003 -0.12669,-0.15245 -0.26455,-0.29627 -0.38008,-0.45735 -0.077,-0.10734 0.91874,0.14548 0.40421,0.44299 -0.005,0.002 -0.009,0.003 -0.0139,0.004 0,0 -0.42289,-0.37909 -0.42289,-0.37909 v 0 c 10e-4,-0.005 0.002,-0.01 0.003,-0.0143 0.23851,-0.5415 0.59339,0.41707 0.4841,0.35371 -0.17123,-0.0993 -0.32748,-0.22234 -0.49121,-0.33351 -3e-5,-0.004 -5e-5,-0.007 -8e-5,-0.011 0.005,-0.0113 0.004,-0.0413 0.0138,-0.0338 0.1211,0.0948 0.70247,0.78217 0.46159,0.0388 0.15942,0.0365 0.35281,0.20823 0.53696,0.22494 0.44609,0.13165 0.14988,0.0876 0.67312,0.0329 0.72555,-0.0759 1.456,-0.13286 2.15887,-0.34792 1.16018,-0.35396 2.31485,-0.80336 3.16961,-1.70069 0.0946,-0.11929 0.1993,-0.23118 0.2837,-0.35786 0.37243,-0.55902 0.27057,-1.1484 -0.11861,-1.66711 -0.10216,-0.11287 -0.19668,-0.23317 -0.3065,-0.33861 -0.58437,-0.56104 -1.32609,-0.89251 -2.1221,-1.01321 -0.78312,-0.0487 -1.41718,-0.002 -1.91717,0.67478 -0.34184,0.6556 -0.48231,1.33656 -0.39542,2.07461 0.01,0.0773 0.0244,0.15419 0.0298,0.23196 0.003,0.0369 0.0296,0.10121 -0.006,0.11079 -0.0698,0.0187 -0.13955,-0.0679 -0.21018,-0.0528 -0.79058,0.1697 -0.46681,0.0638 -0.69666,0.44651 -0.009,0.0145 -0.002,-0.0336 -0.003,-0.0505 -0.13846,-0.98557 -0.68428,-1.87253 -1.03194,-2.78991 -0.77818,-1.6988 -1.63741,-3.35964 -2.37988,-5.07494 -0.45289,-1.05573 -1.05639,-2.29454 -1.27214,-3.42444 -0.0257,-0.13472 -0.0315,-0.2725 -0.0472,-0.40875 0,0 1.1063,-0.18102 1.1063,-0.18102 z"
       inkscape:connector-curvature="0" />
    <path
       style="fill:#32aa34;fill-opacity:1;stroke:none;stroke-width:1.36500001;stroke-miterlimit:4;stroke-dasharray:none;stroke-opacity:1"
       id="path912"
       d="m 203.49777,213.30219 c -0.88009,0.0647 -1.76629,-0.0158 -2.64651,-0.0595 -0.40682,-0.002 -0.88736,-0.0862 -1.26936,0.11085 -0.11829,0.061 -0.13904,0.13212 -0.20034,0.23913 -0.14879,0.45077 -0.0443,0.77497 0.26177,1.11834 0.38729,0.32518 0.66948,0.34545 1.08093,0.0708 0.48332,-0.45202 0.75539,-1.06792 0.98516,-1.67632 0.11318,-0.2718 0.17778,-0.56556 0.32732,-0.82169 0.0358,-0.0613 0.0426,-0.18608 0.11335,-0.18027 0.4463,0.0366 0.87343,0.19803 1.31014,0.29704 0.14449,0.45814 0.44421,0.83969 0.69433,1.24252 0.11223,0.007 0.38628,0.73333 0.41915,0.7683 0.0728,0.0775 0.46741,0.18104 0.58843,0.21871 0.0172,0.0127 0.30185,0.0618 0.25035,0.0781 -0.97084,1.04302 0.88617,-1.02715 0.35315,0.32455 0,0 -0.56488,0.0182 -0.56488,0.0182 v 0 c -0.004,-0.01 -0.0391,-0.0446 -0.0226,-0.0496 0.72224,-0.22278 0.68792,-0.22522 0.3777,0.25564 -0.17354,0.0493 -0.35439,0.0488 -0.53316,0.0317 -0.1932,-0.0266 -0.28959,-0.0333 -0.48569,-0.0922 -0.11092,-0.0333 -0.21418,-0.0915 -0.3271,-0.11722 -0.16095,-0.0367 -0.33253,-0.0209 -0.49036,-0.0692 -0.2768,-0.0848 -0.479,-0.28606 -0.69506,-0.46245 -0.0976,-0.10313 -0.20434,-0.1983 -0.29277,-0.30938 -0.33456,-0.42028 -0.55252,-0.94494 -0.64165,-1.47134 0.4122,0.007 0.82513,0.0476 1.2366,0.022 0.0412,-0.003 0.0282,-0.11225 0.0685,-0.10327 0.0721,0.0161 -0.2175,0.97555 -0.24386,1.01445 -0.4115,0.93569 -0.9328,1.82024 -1.8594,2.32714 -0.16339,0.0619 -0.32079,0.14275 -0.49016,0.18561 -0.85537,0.21642 -1.64064,-0.12738 -2.18917,-0.78453 -0.0822,-0.13362 -0.17825,-0.25965 -0.24659,-0.40087 -0.34724,-0.71753 -0.27627,-1.50896 0.14585,-2.17301 0.10583,-0.11019 0.19861,-0.23462 0.3175,-0.33058 0.58697,-0.47375 1.38823,-0.50377 2.10492,-0.4904 0.8673,0.0751 1.73208,0.19591 2.58131,0.38935 0,0 -0.0178,0.87952 -0.0178,0.87952 z"
       inkscape:connector-curvature="0" />
    <path
       style="fill:#32aa34;fill-opacity:1;stroke:none;stroke-width:1.36500001;stroke-miterlimit:4;stroke-dasharray:none;stroke-opacity:1"
       id="path914"
       d="m 211.41603,210.62526 c -0.91244,0.393 -1.71994,0.97141 -2.46809,1.61701 -0.48515,0.50198 -1.3295,1.24289 -1.46112,1.96633 -0.0111,0.0609 0.008,0.12356 0.0115,0.18534 0.0269,0.0205 0.0487,0.0506 0.0806,0.0616 0.0315,0.0108 0.0668,-0.004 0.0998,2.2e-4 0.39922,0.0486 -0.0771,0.0272 0.46038,0.0856 0.30587,0.0333 0.61439,0.0342 0.92159,0.0512 0.64308,-0.0627 1.30454,0.0739 1.94526,-0.0266 0.60287,-0.0946 1.14604,-0.4064 1.68972,-0.662 0.34342,-0.16555 0.68786,-0.32958 1.02457,-0.50856 0.0616,-0.042 0.0682,0.13132 -0.0132,0.11767 0,0 -0.0303,-0.13463 -0.0303,-0.13463 v 0 c 0.0778,-0.053 0.22447,0.0576 0.14124,0.12919 -0.24587,0.31591 -0.59878,0.53428 -0.91208,0.77384 -0.54656,0.3537 -1.11717,0.65958 -1.67804,0.99026 -0.71737,0.42294 -1.30017,0.77982 -2.15826,0.84789 -0.23931,0.0121 -0.47861,0.048 -0.71793,0.0362 -0.8631,-0.0426 -1.81183,-0.40872 -2.18098,-1.25579 -0.0813,-0.18661 -0.0849,-0.39818 -0.12733,-0.59726 0.0198,-0.19343 0.016,-0.39075 0.0594,-0.58027 0.24925,-1.08745 1.14969,-1.91214 1.93634,-2.62893 0.19541,-0.14374 0.38382,-0.29751 0.58623,-0.43121 0.77345,-0.51087 1.65206,-0.88862 2.56532,-1.05079 0,0 0.22526,1.01371 0.22526,1.01371 z"
       inkscape:connector-curvature="0" />
    <path
       style="fill:#32aa34;fill-opacity:1;stroke:none;stroke-width:1.36500001;stroke-miterlimit:4;stroke-dasharray:none;stroke-opacity:1"
       id="path916"
       d="m 211.10297,199.83427 c -0.11341,0.69291 -0.0656,1.40711 0.12617,2.08331 0.0586,0.20668 0.14144,0.40572 0.21215,0.60857 0.70837,1.61342 1.77137,3.03783 2.7877,4.46649 0.93445,1.29916 1.87479,2.61814 2.40436,4.14386 0.0914,0.2634 0.15383,0.536 0.23074,0.80399 0.23001,1.35166 0.0684,0.15897 0.13222,1.42279 0.009,0.17048 0.0422,0.33891 0.055,0.50912 0.0222,0.29423 0.0119,0.58284 -0.0173,0.87536 5.3e-4,0.036 -0.0824,0.42026 -0.13254,0.42304 -0.15195,0.008 -0.30298,-0.029 -0.45447,-0.0436 -0.0105,-0.0381 -0.006,-0.021 -0.0138,-0.0513 0,0 0.41921,-0.26094 0.41921,-0.26094 v 0 c 5.3e-4,-0.003 0.001,-0.006 0.002,-0.008 0.008,0.005 0.0156,0.01 0.0233,0.0146 -0.12672,0.0203 -0.25651,0.0266 -0.38018,0.061 -0.0483,0.0134 -0.0296,0.12822 -0.0491,-0.0159 -0.005,-0.0353 -0.01,-0.0705 -0.0149,-0.1058 -0.0547,-0.33012 -0.14419,-0.91144 -0.26374,-1.19271 -0.15992,-0.37625 -0.45805,-0.68375 -0.61514,-1.06106 -0.92125,-1.49779 -1.85071,-2.99002 -2.90932,-4.39666 -1.12074,-1.60154 -2.26412,-3.22912 -2.8045,-5.13381 -0.27998,-1.21884 -0.51268,-2.46742 0.0392,-3.64923 0,0 1.22297,0.5074 1.22297,0.5074 z"
       inkscape:connector-curvature="0" />
    <path
       style="fill:#32aa34;fill-opacity:1;stroke:none;stroke-width:1.36500001;stroke-miterlimit:4;stroke-dasharray:none;stroke-opacity:1"
       id="path918"
       d="m 220.85305,208.19573 c -0.68126,0.75456 -1.37941,1.49386 -2.07807,2.23229 -0.58676,0.68059 -1.26645,1.28775 -1.80787,2.0068 -0.0555,0.20176 0.073,-0.26224 0.0636,-0.29873 -0.0486,-0.18806 -0.21741,-0.32448 -0.29503,-0.50255 -0.0495,-0.11362 0.16193,-0.11856 0.38045,-0.16282 0.17227,-0.0349 0.34522,-0.0664 0.51783,-0.0996 0.98102,-0.19453 1.9745,-0.35899 2.9758,-0.39936 0.69699,-0.0281 0.96591,0.007 1.6582,0.0502 0.61843,0.10866 0.90426,0.12938 1.49052,0.3451 0.20778,0.0765 0.39831,0.19443 0.6041,0.27609 0.15837,0.0628 0.32599,0.0997 0.48656,0.15672 0.28058,0.0996 0.3734,0.14974 0.62549,0.26843 0.18643,0.096 0.37349,0.19815 0.513,0.35737 -0.17901,0.40265 -0.0649,0.46073 -0.26292,0.41436 0,0 -0.053,-0.48631 -0.053,-0.48631 v 0 c 0.045,-0.052 0.33288,-0.62033 -0.0658,0.38302 0.11016,0.1211 -0.305,-0.0879 -0.34548,-0.0554 -0.30595,-0.0685 -0.75915,-0.20002 -1.05651,-0.20847 -0.18998,-0.005 -0.37863,0.0336 -0.5678,0.052 -0.69,0.0671 -0.63115,0.0644 -1.34366,0.1505 -1.48426,0.14962 -2.96412,0.33976 -4.44877,0.48614 -0.34621,0.0179 -1.37478,0.1057 -1.67548,-0.0835 -0.72672,-0.45716 -0.77505,-0.84914 -0.43251,-1.52385 0.55705,-0.8056 1.2727,-1.48278 1.95873,-2.17683 0.74049,-0.74142 1.48418,-1.49125 2.32969,-2.11419 0,0 0.82892,0.93253 0.82892,0.93253 z"
       inkscape:connector-curvature="0" />
    <path
       style="fill:#32aa34;fill-opacity:1;stroke:none;stroke-width:1.36500001;stroke-miterlimit:4;stroke-dasharray:none;stroke-opacity:1"
       id="path920"
       d="m 173.60563,223.95117 c -0.30313,0.88687 -0.82009,1.6786 -1.37423,2.42639 -0.91969,1.14923 -2.08354,2.06671 -3.24308,2.95998 -1.69079,1.2598 -3.53271,2.29547 -5.38932,3.28663 -1.59624,0.80752 -3.24016,1.52108 -4.93253,2.10225 -1.22788,0.42167 -1.62016,0.51636 -2.87803,0.87719 -3.28793,0.89531 -6.64155,1.51185 -10.00283,2.05433 -3.93231,0.61018 -7.8963,0.97294 -11.86246,1.27278 -4.50518,0.30388 -9.01743,0.49424 -13.53113,0.60881 -5.1906,0.1237 -10.37987,-0.0485 -15.56303,-0.3131 -4.32653,-0.25309 -8.650603,-0.61574 -12.947399,-1.18981 -0.850373,-0.11361 -1.698096,-0.24625 -2.547144,-0.36938 -3.387375,-0.52966 -6.746369,-1.24088 -10.056862,-2.1332 -2.012503,-0.54246 -2.884856,-0.83342 -4.87026,-1.44944 -3.86792,-1.23467 -7.661275,-2.71034 -11.308918,-4.49715 -0.700093,-0.34295 -1.388018,-0.7102 -2.082025,-1.0653 -3.305006,-1.7645 -6.448539,-3.82063 -9.444445,-6.06773 -0.564115,-0.42312 -1.117155,-0.86081 -1.675733,-1.29121 -2.108978,-1.68178 -4.136959,-3.47109 -5.97454,-5.44883 -1.171628,-1.26098 -1.340726,-1.51931 -2.408923,-2.84815 -1.338556,-1.76708 -2.523948,-3.66044 -3.358565,-5.72046 -0.516155,-1.27399 -0.543386,-1.54103 -0.892109,-2.85588 -0.375883,-1.81385 -0.472004,-3.68188 -0.178112,-5.51605 0.197254,-1.23106 0.333208,-1.4915 0.718253,-2.6733 0.853969,-2.12178 2.153973,-4.03316 3.751816,-5.66575 0.323688,-0.33073 0.670838,-0.63766 1.006258,-0.95649 2.096783,-1.90458 4.460245,-3.46524 6.867218,-4.94257 2.290895,-1.37818 4.591515,-2.7399 6.909477,-4.07208 1.74321,-0.98642 3.500792,-1.94874 5.295035,-2.83944 1.156139,-0.58754 2.378691,-1.02246 3.59392,-1.46783 0.879078,-0.31478 1.737593,-0.68181 2.594052,-1.05263 0.54076,-0.24074 1.090858,-0.45956 1.635908,-0.69031 0.168015,-0.0713 0.336941,-0.14294 0.494805,-0.23479 -0.152892,0.13648 0.133839,-0.13664 0.170331,-0.17218 0.0872,-0.0867 0.18434,-0.16207 0.275881,-0.24403 0.117043,-0.11931 0.247115,-0.22143 0.38195,-0.31984 0.231163,-0.17785 0.492289,-0.31432 0.756599,-0.43534 0.327028,-0.14317 0.665414,-0.25821 0.991312,-0.40388 0.265793,-0.10836 0.502431,-0.27041 0.741035,-0.42704 0.234,-0.14063 0.444881,-0.31439 0.676454,-0.45832 0.288478,-0.18505 0.60846,-0.22195 0.941565,-0.20768 0.0734,0.0109 0.148945,0.0122 0.220438,0.0332 0.509291,-0.14278 -0.0085,-0.0155 -0.802788,1.31698 -0.02633,0.0442 0.06713,0.0752 -0.09328,-0.007 -0.450003,-0.23595 -0.943469,-0.38322 -1.424654,-0.54231 -0.974762,-0.3344 -1.989304,-0.52775 -2.998927,-0.72262 -1.159383,-0.21889 -2.322521,-0.4179 -3.479459,-0.64955 -0.658021,-0.13248 -1.308275,-0.29916 -1.964449,-0.44011 -0.608558,-0.1233 -0.112398,0.0183 0.194606,-0.28353 0.104405,-0.10265 0.148407,-0.25243 0.222612,-0.37864 0.07323,-0.14693 -0.01225,-0.34243 -0.02971,-0.44416 0.149075,0.1132 0.304099,0.21349 0.482669,0.27213 0.535239,0.11397 1.080572,0.17921 1.623216,0.24778 1.007131,0.1072 2.01526,0.20415 3.022878,0.30751 1.014222,0.11123 2.026547,0.23844 3.040843,0.34881 0.615331,0.067 1.232977,0.10386 1.85002,0.14972 0.258672,0.0103 0.516778,0.0267 0.774917,0.0453 0.07174,0.0113 0.143181,0.0104 0.215116,0.0107 0.628955,0.0823 0.04436,1.9168 0.437738,1.62019 0.01759,-0.0164 0.02933,-0.0439 0.05279,-0.0491 0.04973,-0.011 -0.02365,0.0991 -0.03847,0.14785 -0.06599,0.21721 -0.130183,0.43469 -0.192183,0.65308 -0.243017,0.89513 -0.495086,1.78785 -0.725733,2.68629 -0.385533,1.50099 -0.841251,2.98323 -1.277163,4.47021 -0.315576,1.11968 -0.631372,2.23931 -0.930793,3.36344 -0.09051,0.32533 -0.15036,0.66005 -0.253873,0.98184 -0.0097,0.0192 -0.008,0.0298 -0.03697,0.006 -0.237988,-0.1924 -0.170064,-0.0499 -0.332161,0.0913 -0.04483,0.0391 -0.104515,0.0567 -0.156776,0.0851 -0.03958,0.031 -0.07916,0.0619 -0.118737,0.0929 0,0 -0.497657,-0.0134 -0.497657,-0.0134 v 0 c -0.0371,-0.0609 -0.0742,-0.12189 -0.111297,-0.18284 -0.04396,-0.03 -0.07866,-0.0888 -0.131887,-0.0901 -0.04961,-0.001 -0.07353,0.0796 -0.122968,0.0839 -0.149564,0.0132 -0.23055,-0.11513 -0.23422,-0.2377 -0.01323,-0.40833 0.02821,-0.81622 0.09077,-1.21939 0.192733,-1.1963 0.451802,-2.38185 0.76404,-3.5526 0.416621,-1.50029 0.876178,-2.98759 1.394865,-4.45603 0.302762,-0.90673 0.587372,-1.82029 0.930153,-2.71304 0.181925,-0.45153 0.345326,-0.92357 0.643154,-1.31408 0.651254,-0.65874 0.464574,-0.26215 0.858478,1.26302 -0.0726,0.001 -0.144746,0.001 -0.217022,0.0132 -0.269936,0.0218 -0.539917,0.0388 -0.810884,0.0428 -0.665322,0.0274 -1.33237,0.0194 -1.996959,-0.0225 -1.029213,-0.0721 -2.054246,-0.18995 -3.077959,-0.31732 -1.038666,-0.11385 -2.082654,-0.19213 -3.111984,-0.37872 -0.699039,-0.1286 -1.407747,-0.25986 -2.06643,-0.53524 -0.298569,-0.15009 -0.574252,-0.33235 -0.838933,-0.53637 -0.39412,-0.33323 -0.620691,-0.74553 -0.562634,-1.27472 0.08192,-0.16309 0.123788,-0.35352 0.245769,-0.48929 0.339368,-0.37774 0.844384,-0.3516 1.295062,-0.32266 0.681736,0.0604 1.354812,0.18514 2.032661,0.2772 1.196819,0.16157 2.396069,0.31528 3.576394,0.5768 1.106625,0.24825 2.214835,0.50876 3.268636,0.93696 0.600718,0.25386 1.200975,0.52278 1.735087,0.90203 0.471289,0.36576 1.702901,1.39551 -0.285686,1.85914 -0.07025,0.005 -0.140198,-0.006 -0.210127,-0.0126 2.64e-4,-5e-5 0.266639,-0.0725 0.207026,-0.0374 -0.199941,0.17855 -0.392007,0.36675 -0.609026,0.52513 -0.322778,0.23408 -0.663011,0.44092 -1.028105,0.60309 -0.346247,0.15835 -0.699555,0.30076 -1.060971,0.42098 -0.151847,0.045 -0.295595,0.10578 -0.424497,0.19919 -0.07591,0.0551 -0.144958,0.12316 -0.22048,0.18047 -0.08368,0.0741 -0.163844,0.15372 -0.251291,0.22257 -0.09584,0.0781 -0.150574,0.20472 -0.272619,0.28473 -0.236114,0.18584 -0.487405,0.34854 -0.745844,0.50179 -0.532093,0.31669 -1.082188,0.6032 -1.641422,0.86877 -0.882703,0.42587 -1.771926,0.84017 -2.691271,1.18209 -1.117936,0.43993 -2.230146,0.89904 -3.26844,1.50974 -1.710052,0.97223 -3.382282,2.00804 -5.062233,3.03097 -2.276419,1.37651 -4.559469,2.74204 -6.832637,4.12394 -2.261515,1.36959 -4.484931,2.80782 -6.470023,4.56628 -0.746119,0.68779 -1.019259,0.89992 -1.68072,1.6655 -0.995556,1.15227 -1.805305,2.45849 -2.386815,3.86556 -0.118657,0.35094 -0.256275,0.69604 -0.35597,1.05283 -0.511926,1.83212 -0.489524,3.74973 -0.05551,5.59368 0.310994,1.08076 0.351939,1.35192 0.806062,2.39763 0.787413,1.81318 1.905071,3.46054 3.140188,4.99533 0.363879,0.42951 0.717439,0.86798 1.091634,1.28853 2.086486,2.34499 4.447982,4.43459 6.913142,6.37071 3.403557,2.54658 6.910088,4.97897 10.684859,6.94961 1.814682,0.90971 2.18086,1.1211 4.04799,1.94431 2.883207,1.2712 5.852475,2.33803 8.85535,3.28864 4.740524,1.43977 9.501386,2.72996 14.413023,3.45115 2.214251,0.31877 2.740689,0.41321 4.968947,0.65895 3.394739,0.37439 6.80339,0.62302 10.21168,0.83208 5.11188,0.26503 10.22862,0.42973 15.34769,0.45615 4.45505,0.0171 8.90959,-0.0486 13.35759,-0.32254 3.89051,-0.24091 7.78132,-0.51922 11.64539,-1.04727 3.26971,-0.46008 6.53819,-0.95997 9.74925,-1.74241 2.54874,-0.64746 5.07697,-1.39441 7.46147,-2.52181 1.81024,-0.84636 3.60936,-1.72686 5.30326,-2.79209 1.09296,-0.72012 2.19646,-1.44933 3.08982,-2.41783 0.5557,-0.63061 1.04026,-1.31344 1.55096,-1.97953 0,0 1.0922,0.5715 1.0922,0.5715 z"
       inkscape:connector-curvature="0" />
  </g>
</svg>
